<?xml version="1.0" encoding="UTF-8" standalone="no"?>
<!-- Created with Inkscape (http://www.inkscape.org/) -->

<svg
   version="1.1"
   id="svg2"
   width="1600"
   height="1600"
   viewBox="0 0 1600 1600"
   sodipodi:docname="01.svg"
   inkscape:version="1.1.2 (b8e25be833, 2022-02-05)"
   xmlns:inkscape="http://www.inkscape.org/namespaces/inkscape"
   xmlns:sodipodi="http://sodipodi.sourceforge.net/DTD/sodipodi-0.dtd"
   xmlns="http://www.w3.org/2000/svg"
   xmlns:svg="http://www.w3.org/2000/svg">
  <defs
     id="defs6" />
  <sodipodi:namedview
     id="namedview4"
     pagecolor="#ffffff"
     bordercolor="#666666"
     borderopacity="1.0"
     inkscape:pageshadow="2"
     inkscape:pageopacity="0.0"
     inkscape:pagecheckerboard="0"
     showgrid="false"
     inkscape:zoom="0.25625"
     inkscape:cx="1174.6341"
     inkscape:cy="1043.9024"
     inkscape:window-width="1920"
     inkscape:window-height="1013"
     inkscape:window-x="-9"
     inkscape:window-y="-9"
     inkscape:window-maximized="1"
     inkscape:current-layer="g8" />
  <g
     inkscape:groupmode="layer"
     inkscape:label="Image"
     id="g8">
    <path
       style="fill:#ffffff;fill-opacity:1"
       d="m 771.31492,1518.7006 c -0.27172,-0.4397 -4.16623,-0.8229 -8.65448,-0.8516 -13.25982,-0.085 -29.03555,-1.1816 -42.02436,-2.9219 -4.32515,-0.5795 -8.48765,-0.8143 -9.25,-0.5218 -0.76234,0.2926 -1.38608,0.1485 -1.38608,-0.3202 0,-0.4687 -3.0375,-1.171 -6.75,-1.5607 -11.13523,-1.169 -12.4093,-1.3658 -30.4182,-4.7003 -9.53249,-1.765 -18.5693,-3.235 -20.0818,-3.2666 -1.5125,-0.032 -2.75,-0.3554 -2.75,-0.7196 0,-0.3642 -1.9125,-0.9797 -4.25,-1.3679 -6.43403,-1.0685 -6.93142,-1.1725 -11.52697,-2.4099 -2.34805,-0.6323 -4.70879,-0.8779 -5.2461,-0.5458 -0.53731,0.332 -0.97693,0.1629 -0.97693,-0.3758 0,-0.8972 -3.4727,-2.0092 -8.5,-2.7219 -3.52145,-0.4991 -33.74363,-9.4796 -43.75691,-13.0022 -3.7163,-1.3074 -6.9981,-2.3389 -7.29289,-2.2922 -0.29479,0.047 -1.75418,-0.3947 -3.24309,-0.981 -1.48891,-0.5862 -8.78211,-3.3063 -16.20711,-6.0446 -18.60332,-6.8609 -32.42281,-12.5157 -47.5,-19.4366 -78.50819,-36.0374 -148.93925,-85.0408 -210.0292,-146.1308 -28.51383,-28.5138 -59.27039,-64.8202 -78.38513,-92.5292 -18.21596,-26.4061 -32.67885,-49.383 -43.11763,-68.5 -9.88013,-18.094 -26.48851,-52.1034 -31.00997,-63.5 -0.98193,-2.475 -3.20503,-7.875 -4.94022,-12 -1.73519,-4.125 -4.71632,-11.775 -6.62473,-17 -1.9084,-5.225 -4.53983,-12.425 -5.84761,-16 -1.30778,-3.575 -3.81461,-11 -5.57073,-16.5 -1.75611,-5.5 -4.07922,-12.6182 -5.16245,-15.8182 -1.08323,-3.2 -2.17464,-7.02503 -2.42535,-8.50001 -0.25071,-1.47498 -1.31148,-5.38179 -2.35727,-8.68179 -1.0458,-3.3 -2.41221,-8.5875 -3.03647,-11.75 -0.62427,-3.1625 -1.57969,-5.75 -2.12315,-5.75 -0.54347,0 -0.70457,-0.4588 -0.35801,-1.01955 0.34657,-0.56075 0.1628,-2.47325 -0.40838,-4.25 C 99.532527,964.9537 98.812031,961.925 98.502598,960 c -1.287953,-8.01243 -1.757793,-10 -2.363889,-10 -0.35129,0 -0.668076,-1.2375 -0.703969,-2.75 -0.09492,-3.99964 -3.542389,-22.6618 -4.294988,-23.25 -0.351864,-0.275 -0.675883,-1.85 -0.720042,-3.5 -0.04416,-1.65 -1.493449,-13.35 -3.220642,-26 C 83.271494,865.73436 82.256153,854.21494 82.152956,837.25 82.125355,832.7125 81.742148,829 81.301386,829 80.860624,829 80.5,815.95 80.5,800 c 0,-15.95 0.360624,-29 0.801386,-29 0.440762,0 0.823969,-3.7125 0.85157,-8.25 0.09185,-15.10005 1.140092,-28.62174 3.779236,-48.75 1.045652,-7.975 1.930102,-15.175 1.965443,-16 0.03534,-0.825 0.563127,-4.425 1.172858,-8 0.609731,-3.575 1.180805,-8.075 1.269054,-10 0.08825,-1.925 0.448341,-3.725 0.800205,-4 0.752599,-0.5882 4.200073,-19.25036 4.294988,-23.25 0.03589,-1.5125 0.363206,-2.75 0.727362,-2.75 0.364156,0 0.981045,-1.9125 1.370864,-4.25 0.38982,-2.3375 0.895568,-5.375 1.123885,-6.75 0.228318,-1.375 0.880924,-3.9537 1.450239,-5.73045 0.56931,-1.77675 0.75156,-3.68925 0.40499,-4.25 C 100.16552,628.4588 100.32662,628 100.87009,628 c 0.54346,0 1.49888,-2.5875 2.12315,-5.75 0.62426,-3.1625 1.99067,-8.45 3.03647,-11.75 1.04579,-3.3 2.10656,-7.20681 2.35727,-8.68179 0.25071,-1.47498 1.34212,-5.29998 2.42535,-8.5 1.08323,-3.20002 3.40634,-10.31821 5.16245,-15.81821 1.75612,-5.5 4.26295,-12.925 5.57073,-16.5 1.30778,-3.575 3.93921,-10.775 5.84761,-16 1.90841,-5.225 4.88954,-12.875 6.62473,-17 1.73519,-4.125 3.95829,-9.525 4.94022,-12 4.52146,-11.39659 21.12984,-45.40604 31.00997,-63.5 10.41653,-19.07627 26.28345,-44.2718 43.13799,-68.5 20.15929,-28.97873 49.73046,-63.89489 78.36477,-92.5292 61.08995,-61.08995 131.52101,-110.09337 210.0292,-146.13082 15.07719,-6.92085 28.89668,-12.57565 47.5,-19.43655 7.425,-2.73834 14.7182,-5.45844 16.20711,-6.04467 1.48891,-0.58623 3.06391,-1.07051 3.5,-1.07619 0.43609,-0.006 3.71789,-1.03714 7.29289,-2.29215 9.84264,-3.45528 40.04865,-12.41783 43.5,-12.90706 5.0273,-0.71263 8.5,-1.82464 8.5,-2.72183 0,-0.53876 0.43962,-0.70787 0.97693,-0.37579 0.53731,0.33208 2.89805,0.0865 5.2461,-0.545796 4.59555,-1.237452 5.09294,-1.341442 11.52697,-2.409942 2.3375,-0.388189 4.25,-1.003744 4.25,-1.3679 0,-0.364156 1.2375,-0.687978 2.75,-0.719604 1.5125,-0.03163 10.625,-1.515897 20.25,-3.29838 9.625,-1.782484 19.525,-3.462059 22,-3.732389 2.475,-0.27033 10.8,-1.352709 18.5,-2.405288 18.71732,-2.558631 33.97669,-3.764943 48.76089,-3.854735 4.26849,-0.02593 8.1869,-0.310419 8.70756,-0.632208 1.23649,-0.76419 56.82661,-0.76419 58.0631,0 0.52066,0.321789 4.43907,0.606283 8.70756,0.632208 12.78466,0.07765 28.77989,1.200183 41.62481,2.9212 4.32515,0.579503 8.48765,0.814292 9.25,0.521753 C 889.37626,85.30212 890,85.446223 890,85.914888 c 0,0.468665 3.0375,1.170988 6.75,1.560718 11.13523,1.168952 12.4093,1.365824 30.4182,4.700292 9.53249,1.765004 18.5693,3.234975 20.0818,3.2666 1.5125,0.03163 2.75,0.355448 2.75,0.719604 0,0.364156 1.9125,0.979711 4.25,1.3679 6.43403,1.0685 6.93142,1.17249 11.52697,2.409942 2.34805,0.632266 4.70879,0.877876 5.2461,0.545796 0.53731,-0.33208 0.97693,-0.16297 0.97693,0.37579 0,0.89719 3.4727,2.0092 8.5,2.72183 3.45135,0.48923 33.6574,9.45178 43.5,12.90706 3.575,1.25501 6.8568,2.28648 7.2929,2.29215 0.4361,0.006 2.0111,0.48996 3.5,1.07619 1.4889,0.58623 8.7821,3.30633 16.2071,6.04467 18.6033,6.8609 32.4228,12.5157 47.5,19.43655 78.5082,36.03745 148.9393,85.04087 210.0292,146.13082 28.5138,28.51383 59.2704,64.8202 78.3851,92.5292 18.216,26.4061 32.6789,49.38297 43.1177,68.5 9.8801,18.09396 26.4885,52.10341 31.0099,63.5 0.982,2.475 3.2051,7.875 4.9403,12 1.7351,4.125 4.7163,11.775 6.6247,17 1.9084,5.225 4.5398,12.425 5.8476,16 1.3078,3.575 3.8146,11 5.5707,16.5 1.7561,5.5 4.0792,12.61819 5.1625,15.81821 1.0832,3.20002 2.1746,7.02502 2.4253,8.5 0.2507,1.47498 1.3115,5.38179 2.3573,8.68179 1.0458,3.3 2.4122,8.5875 3.0365,11.75 0.6242,3.1625 1.5796,5.75 2.1231,5.75 0.5435,0 0.7046,0.4588 0.358,1.01955 -0.3465,0.56075 -0.1628,2.47325 0.4084,4.25 0.5712,1.77675 1.2917,4.80545 1.6011,6.73045 1.288,8.01243 1.7578,10 2.3639,10 0.3513,0 0.6681,1.2375 0.704,2.75 0.1132,4.77101 3.6044,22.73584 4.4823,23.06461 0.462,0.17303 0.6027,0.93307 0.3127,1.68896 -0.2901,0.7559 -0.038,3.76433 0.5606,6.6854 1.2361,6.03349 2.122,11.60571 2.1956,13.81103 0.028,0.825 0.9057,8.025 1.9513,16 2.6392,20.12826 3.6874,33.64995 3.7792,48.75 0.028,4.5375 0.4109,8.25 0.8516,8.25 0.4408,0 0.8014,13.05 0.8014,29 0,15.95 -0.3606,29 -0.8014,29 -0.4407,0 -0.824,3.7125 -0.8516,8.25 -0.092,15.10005 -1.14,28.62174 -3.7792,48.75 -1.0456,7.975 -1.9301,15.175 -1.9654,16 -0.035,0.825 -0.5632,4.425 -1.1729,8 -0.6097,3.575 -1.1808,8.075 -1.269,10 -0.088,1.925 -0.4484,3.725 -0.8003,4 -0.7526,0.5882 -4.2,19.25036 -4.2949,23.25 -0.036,1.5125 -0.3527,2.75 -0.704,2.75 -0.6061,0 -1.0759,1.98757 -2.3639,10 -0.3094,1.925 -1.0299,4.9537 -1.6011,6.73045 -0.5712,1.77675 -0.7549,3.68925 -0.4084,4.25 0.3466,0.56075 0.1855,1.01955 -0.358,1.01955 -0.5435,0 -1.4989,2.5875 -2.1231,5.75 -0.6243,3.1625 -1.9907,8.45 -3.0365,11.75 -1.0458,3.3 -2.1066,7.20681 -2.3573,8.68179 -0.2507,1.47498 -1.3421,5.30001 -2.4253,8.50001 -1.0833,3.2 -3.4059,10.3182 -5.1614,15.8182 -1.7556,5.5 -4.2473,12.925 -5.5372,16.5 -5.7506,15.9381 -9.5789,26.0393 -12.5069,33 -1.7352,4.125 -3.9583,9.525 -4.9403,12 -4.5214,11.3966 -21.1298,45.406 -31.0099,63.5 -10.4388,19.117 -24.9017,42.0939 -43.1177,68.5 -19.1147,27.709 -49.8713,64.0154 -78.3851,92.5292 -61.0899,61.09 -131.521,110.0934 -210.0292,146.1308 -15.0772,6.9209 -28.8967,12.5757 -47.5,19.4366 -7.425,2.7383 -14.7182,5.4584 -16.2071,6.0446 -1.4889,0.5863 -2.9483,1.0277 -3.2431,0.981 -0.2948,-0.047 -3.5766,0.9848 -7.2929,2.2922 -10.0133,3.5226 -40.23545,12.5031 -43.7569,13.0022 -5.0273,0.7127 -8.5,1.8247 -8.5,2.7219 0,0.5387 -0.43962,0.7078 -0.97693,0.3758 -0.53731,-0.3321 -2.89805,-0.087 -5.2461,0.5458 -4.59555,1.2374 -5.09294,1.3414 -11.52697,2.4099 -2.3375,0.3882 -4.25,1.0037 -4.25,1.3679 0,0.3642 -1.2375,0.688 -2.75,0.7196 -1.5125,0.032 -10.54931,1.5016 -20.0818,3.2666 -18.0089,3.3345 -19.28297,3.5313 -30.4182,4.7003 -3.7125,0.3897 -6.75,1.092 -6.75,1.5607 0,0.4687 -0.62374,0.6128 -1.38608,0.3202 -0.76235,-0.2925 -4.92485,-0.058 -9.25,0.5218 -12.84492,1.721 -28.84015,2.8435 -41.62481,2.9212 -4.26849,0.026 -8.18623,0.31 -8.70608,0.6313 -1.46998,0.9085 -57.16146,1.1217 -57.71811,0.221 z M 817.5,1232.5845 c 4.95,-1.3671 13.275,-3.6796 18.5,-5.1389 5.225,-1.4594 13.43407,-3.7429 18.24237,-5.0744 22.72801,-6.2939 26.88722,-7.4477 35.75763,-9.9191 5.225,-1.4558 13.2879,-3.7661 17.91755,-5.134 4.62966,-1.368 9.45354,-2.2892 10.71974,-2.0471 1.2662,0.242 2.1026,0.1171 1.85865,-0.2776 -0.65112,-1.0535 14.2958,-5.2811 16.56956,-4.6865 1.06549,0.2786 1.73216,0.1747 1.48148,-0.2309 -0.776,-1.2556 31.82112,-10.4745 34.53105,-9.7658 1.0586,0.2768 1.70939,0.1548 1.44619,-0.271 -0.67567,-1.0933 15.03896,-5.4208 16.97991,-4.676 0.87986,0.3376 1.37285,0.2468 1.09554,-0.2019 -0.69031,-1.117 14.95713,-5.5454 16.92533,-4.7901 0.8684,0.3332 1.3408,0.2206 1.0498,-0.2502 -0.8045,-1.3017 14.794,-5.4426 17.5564,-4.6606 1.4725,0.4169 1.894,0.3386 1.1139,-0.207 -1.6474,-1.1519 14.0319,-5.7448 16.4475,-4.8179 0.9605,0.3686 1.3821,0.3089 0.9369,-0.1326 -0.4452,-0.4416 0.9185,-1.2912 3.0305,-1.888 3.4512,-0.9753 3.8969,-1.4816 4.4021,-5 0.4801,-3.3438 0.6399,-3.5502 1.0951,-1.4149 0.2932,1.375 0.3172,0.069 0.053,-2.9033 -0.6268,-7.0641 4.0434,-56.5695 4.9576,-52.5512 0.3697,1.625 0.4218,0.1141 0.1157,-3.3575 -0.6847,-7.7685 3.8908,-56.8982 4.8987,-52.5996 0.3755,1.6014 0.4275,0.2551 0.1156,-2.9917 -0.7009,-7.2961 3.8934,-57.34389 4.87,-53.05122 0.3697,1.62499 0.4218,0.11412 0.1157,-3.35748 -0.6795,-7.70872 3.8919,-56.9193 4.8862,-52.59961 0.3686,1.60138 0.4199,0.0712 0.1138,-3.40039 -0.6795,-7.70872 3.8919,-56.9193 4.8862,-52.59961 0.3686,1.60138 0.4199,0.0712 0.1138,-3.40039 -0.7062,-8.01174 3.9085,-57.29226 4.887,-52.188 0.369,1.925 0.423,0.40589 0.12,-3.37579 -0.6647,-8.29554 3.8591,-57.46759 4.8792,-53.03582 0.3686,1.60138 0.4199,0.0712 0.1138,-3.40039 -0.6795,-7.70872 3.8919,-56.9193 4.8862,-52.59961 0.3686,1.60138 0.4199,0.0712 0.1138,-3.40039 -0.6795,-7.70872 3.8919,-56.9193 4.8862,-52.59961 0.3686,1.60138 0.4199,0.0712 0.1138,-3.40039 -0.6795,-7.70872 3.8919,-56.9193 4.8862,-52.59961 0.3686,1.60138 0.4199,0.0712 0.1138,-3.40039 -0.6987,-7.92651 3.8881,-56.84474 4.932,-52.59961 0.5362,2.18045 0.6017,1.90714 0.261,-1.08839 -0.2502,-2.2 -0.4599,-5.6875 -0.466,-7.75 L 1110,534 H 800 490 l -0.011,3.75 c -0.006,2.0625 -0.21574,5.55 -0.46598,7.75 -0.34072,2.99553 -0.27518,3.26884 0.26101,1.08839 1.0439,-4.24513 5.63066,44.6731 4.93194,52.59961 -0.30602,3.4716 -0.2548,5.00177 0.11382,3.40039 0.92946,-4.03782 5.57513,44.65513 4.97069,52.09961 -0.25954,3.1966 -0.24952,4.687 0.0223,3.312 0.53272,-2.695 3.39717,23.46323 5.14672,47 0.59281,7.975 2.00977,23.275 3.14882,34 1.21802,11.46868 1.87132,22.7949 1.5862,27.5 -0.29343,4.84232 -0.18539,6.61852 0.27373,4.5 l 0.7585,-3.5 0.13164,4.15597 c 0.0724,2.28578 1.07523,12.86078 2.22852,23.5 1.18837,10.96295 1.8945,22.59351 1.62978,26.84403 -0.2569,4.125 -0.18697,6.45661 0.1554,5.18135 0.97118,-3.61744 5.48402,45.55789 4.80595,52.36929 -0.32574,3.27215 -0.2763,4.91251 0.10987,3.64526 1.07515,-3.52826 5.54375,44.49493 4.88729,52.52289 -0.30498,3.72967 -0.2464,5.47098 0.13016,3.8696 1.01006,-4.29539 5.58624,44.82182 4.90063,52.59961 -0.30602,3.4716 -0.2548,5.00177 0.11382,3.40039 0.99434,-4.31969 5.5657,44.89091 4.88618,52.59961 -0.30602,3.4716 -0.2548,5.0018 0.11382,3.4004 0.99434,-4.3197 5.5657,44.8909 4.88618,52.5996 -0.30602,3.4716 -0.2548,5.0018 0.11382,3.4004 0.99434,-4.3197 5.5657,44.8909 4.88618,52.5996 -0.32502,3.6871 -0.24031,5.0644 0.20368,3.312 l 0.76008,-3 0.41014,3.4724 c 0.38137,3.2288 0.76091,3.5637 5.41014,4.7746 4.71142,1.227 8.06845,2.1541 31.5,8.6986 10.38227,2.8997 22.66778,6.3149 36.25763,10.079 4.8167,1.3341 12.9167,3.5841 18,5 5.0833,1.4159 13.06737,3.6303 17.74237,4.921 4.675,1.2906 12.55,3.4716 17.5,4.8466 4.95,1.375 13.05,3.625 18,5 4.95,1.375 13.05,3.625 18,5 41.66456,11.5735 43.44039,12.1202 42.16456,12.982 -0.64051,0.4326 0.0121,0.5144 1.45021,0.1817 1.54528,-0.3574 6.04451,0.411 11,1.8787 4.61188,1.3659 12.05928,3.5341 16.54979,4.8182 4.70279,1.3449 7.67078,2.6548 7,3.0896 -0.64051,0.4151 0.18544,0.5055 1.83544,0.2008 1.65,-0.3046 4.78479,0.073 6.96619,0.8404 3.31193,1.1642 4.7141,1.1792 8.5,0.09 2.4936,-0.7171 8.58381,-2.4224 13.53381,-3.7894 z m -20.26483,-131.2922 c -1.24566,-0.2394 -2.03254,-0.8111 -1.74862,-1.2705 0.28391,-0.4594 -0.34992,-0.6088 -1.40852,-0.332 -1.0586,0.2769 -5.89672,-0.6207 -10.75138,-1.9946 -4.85466,-1.3739 -12.54137,-3.527 -17.08158,-4.7845 -5.33231,-1.477 -7.81063,-2.5848 -7,-3.129 0.74082,-0.4973 0.15417,-0.5872 -1.43202,-0.2195 -1.62024,0.3757 -6.18572,-0.3703 -11.5,-1.8789 -4.84718,-1.3761 -13.31305,-3.6909 -18.81305,-5.1441 -22.36911,-5.9104 -25.50998,-6.915 -24.25493,-7.7575 0.75077,-0.504 0.21772,-0.6028 -1.32684,-0.2459 -1.49085,0.3445 -6.56144,-0.5069 -12,-2.0149 -5.18003,-1.4363 -12.88425,-3.5688 -17.1205,-4.7389 -4.23625,-1.1701 -7.51237,-2.4347 -7.28026,-2.8103 0.2321,-0.3755 -0.62453,-0.4827 -1.90363,-0.2382 -1.27909,0.2445 -6.0137,-0.7205 -10.52136,-2.1445 -4.50765,-1.4239 -9.07249,-2.589 -10.1441,-2.589 -1.07161,0 -1.94838,-0.1597 -1.94838,-0.3548 0,-2.6908 -2.49757,-30.2073 -3.96152,-43.6452 -1.04856,-9.625 -2.1841,-21.325 -2.52342,-26 -0.33932,-4.675 -1.49402,-16.0765 -2.566,-25.33666 C 630.87708,955.40318 630,945.61033 630,942.90146 v -4.92523 l 38.21034,0.26189 38.21034,0.26188 1.8326,14.5 c 1.03109,8.15819 1.63702,17.78025 1.38542,22 -0.24595,4.125 -0.12229,6.375 0.27482,5 0.52518,-1.81848 0.92312,-0.34567 1.45978,5.40268 1.21231,12.98567 1.34445,13.32486 5.48345,14.07566 2.00379,0.36348 7.24325,1.72386 11.64325,3.02306 4.4,1.2993 11.46879,3.3905 15.70843,4.6471 4.81747,1.4279 7.25522,2.59 6.5,3.0986 -0.67961,0.4576 -0.0642,0.549 1.40634,0.2088 1.54913,-0.3583 6.03215,0.4128 11,1.8921 4.61188,1.3733 11.87648,3.5155 16.14357,4.7603 5.05802,1.4756 7.32037,2.5573 6.5,3.1079 -0.74444,0.4996 -0.15489,0.5886 1.44357,0.2178 1.51953,-0.3524 4.81188,0.074 7.5235,0.9748 4.77849,1.5872 4.93308,1.5685 17.29808,-2.0845 6.86208,-2.0273 13.90151,-3.7171 15.64318,-3.7551 1.74166,-0.038 2.97692,-0.2589 2.745,-0.4909 -0.7938,-0.7938 14.08481,-5.1225 16.30807,-4.7445 1.22085,0.2075 2.02712,0.066 1.79171,-0.3153 -0.23542,-0.3809 2.8157,-1.6438 6.78026,-2.8064 3.96456,-1.1626 11.20664,-3.2944 16.09352,-4.7374 5.30161,-1.5655 9.93982,-2.3797 11.5,-2.0188 1.69425,0.3919 2.14495,0.291 1.28024,-0.2868 -1.03934,-0.6944 -0.90777,-1.00323 0.59481,-1.39616 2.22539,-0.58195 2.57479,-2.71757 4.28745,-26.20592 0.60424,-8.28686 1.95663,-24.06702 3.00532,-35.06702 1.04869,-11 2.20718,-24.3875 2.57443,-29.75 L 895.2952,898 H 760.73737 626.17954 l -0.6274,-8.75 c -0.34507,-4.8125 -1.5391,-17.975 -2.6534,-29.25 -1.11429,-11.275 -2.43276,-25.9 -2.92993,-32.5 -0.49716,-6.6 -1.81265,-21.225 -2.9233,-32.5 -4.1226,-41.85137 -6.17445,-63.84476 -7.13699,-76.5 -0.54382,-7.15 -1.87071,-21.06067 -2.94864,-30.9126 C 605.88195,677.73548 605,668.17298 605,666.3374 V 663 h 194.07946 194.07945 l -0.54465,2.75 c -0.29956,1.5125 -1.03017,9.95 -1.62358,18.75 -0.59342,8.8 -1.72887,23.65 -2.52323,33 -0.79436,9.35 -1.54147,18.6875 -1.66026,20.75 L 986.59123,742 H 837.83324 689.07525 l 0.54497,6.75 c 0.29974,3.7125 1.42948,14.175 2.51054,23.25 1.08106,9.075 2.38098,21.225 2.8887,27 0.50772,5.775 1.2129,12.8625 1.56706,15.75 l 0.64393,5.25 h 140.01398 140.01399 l -0.65307,6.75 c -0.35919,3.7125 -1.05672,13.05 -1.55006,20.75 -0.49333,7.7 -1.79374,24.125 -2.88979,36.5 -1.09605,12.375 -3.04344,35.07872 -4.32753,50.45272 -1.28409,15.374 -2.58516,26.624 -2.89127,25 -0.30611,-1.624 -0.53184,2.44728 -0.50163,9.04728 0.0691,15.08423 -3.64829,56.5448 -4.61747,51.5 -0.36982,-1.925 -0.43309,-0.051 -0.1406,4.1637 0.29249,4.215 -0.0489,14.0481 -0.75876,21.8514 l -1.29055,14.1878 -3.56885,-0.5731 c -1.96286,-0.3152 -3.04479,-0.2456 -2.40428,0.1548 0.65379,0.4086 -2.19707,1.6948 -6.5,2.9326 -21.98447,6.3242 -26.47901,7.4338 -28.24259,6.9726 -1.0586,-0.2768 -1.72059,-0.173 -1.47108,0.2307 0.24951,0.4038 -3.23737,1.7505 -7.74862,2.9928 -8.98848,2.4752 -20.15333,5.5953 -34.52892,9.6496 -5.12966,1.4466 -10.23667,2.3923 -11.34892,2.1014 -1.11224,-0.2908 -1.7365,-0.243 -1.38723,0.1062 0.68857,0.6886 -2.7851,1.8572 -17.4372,5.8663 -28.54252,7.8098 -42.17391,11.3575 -43,11.1914 -0.275,-0.055 -1.51917,-0.2965 -2.76483,-0.5359 z m -59.506,-17.8965 c -0.33229,-0.3323 -1.1948,-0.3678 -1.91667,-0.079 -0.79773,0.3192 -0.56078,0.5562 0.60417,0.6042 1.05416,0.043 1.64479,-0.193 1.3125,-0.5253 z m 164,-10 c -0.33229,-0.3323 -1.1948,-0.3678 -1.91667,-0.079 -0.79773,0.3192 -0.56078,0.5562 0.60417,0.6042 1.05416,0.043 1.64479,-0.193 1.3125,-0.5253 z M 643.24475,1056.5 c -0.26285,-1.375 -0.65044,-2.5 -0.86133,-2.5 -0.21088,0 -0.38342,1.125 -0.38342,2.5 0,1.375 0.3876,2.5 0.86133,2.5 0.47373,0 0.64627,-1.125 0.38342,-2.5 z m 313.43836,-3.6875 c -0.31922,-0.7977 -0.55618,-0.5608 -0.60416,0.6042 -0.0434,1.0541 0.19293,1.6448 0.52522,1.3125 0.33229,-0.3323 0.36781,-1.1948 0.0789,-1.9167 z M 641.68933,1045.25 c -0.25153,-0.9625 -0.45733,-0.175 -0.45733,1.75 0,1.925 0.2058,2.7125 0.45733,1.75 0.25152,-0.9625 0.25152,-2.5375 0,-3.5 z m 316,-5 c -0.25153,-0.9625 -0.45733,-0.175 -0.45733,1.75 0,1.925 0.2058,2.7125 0.45733,1.75 0.25152,-0.9625 0.25152,-2.5375 0,-3.5 z m -316.99634,-3.981 c -0.25354,-0.9729 -0.47766,-0.419 -0.49804,1.231 -0.0204,1.65 0.18706,2.4461 0.46099,1.769 0.27392,-0.677 0.29059,-2.027 0.0371,-3 z m 318.01427,-6.5073 c -0.23919,-1.244 -0.44398,-0.4617 -0.45508,1.7383 -0.0111,2.2 0.18461,3.2177 0.4349,2.2617 0.25029,-0.9561 0.25937,-2.7561 0.0202,-4 z M 637.69299,1003.269 c -0.25354,-0.9729 -0.47766,-0.419 -0.49804,1.231 -0.0204,1.65 0.18706,2.4461 0.46099,1.769 0.27392,-0.677 0.29059,-2.027 0.0371,-3 z m -1.00366,-9.019 c -0.25153,-0.9625 -0.45733,-0.175 -0.45733,1.75 0,1.925 0.2058,2.7125 0.45733,1.75 0.25152,-0.9625 0.25152,-2.5375 0,-3.5 z m 324.97295,-3.5 c -0.27741,-0.6875 -0.50439,-0.125 -0.50439,1.25 0,1.375 0.22698,1.9375 0.50439,1.25 0.27741,-0.6875 0.27741,-1.8125 0,-2.5 z m -325.96929,-5.48097 c -0.25354,-0.97297 -0.47766,-0.41903 -0.49804,1.23097 -0.0204,1.65 0.18706,2.44606 0.46099,1.76903 0.27392,-0.67703 0.29059,-2.02703 0.0371,-3 z M 962.68933,979.25 c -0.25153,-0.9625 -0.45733,-0.175 -0.45733,1.75 0,1.925 0.2058,2.7125 0.45733,1.75 0.25152,-0.9625 0.25152,-2.5375 0,-3.5 z m 1.01793,-9.48834 c -0.23919,-1.24391 -0.44398,-0.46166 -0.45508,1.73834 -0.0111,2.2 0.18461,3.21775 0.4349,2.26166 0.25029,-0.95609 0.25937,-2.75609 0.0202,-4 z m -73.01427,0.50737 c -0.25354,-0.97297 -0.47766,-0.41903 -0.49804,1.23097 -0.0204,1.65 0.18706,2.44606 0.46099,1.76903 0.27392,-0.67703 0.29059,-2.02703 0.0371,-3 z m -182,-1 c -0.25354,-0.97297 -0.47766,-0.41903 -0.49804,1.23097 -0.0204,1.65 0.18706,2.44606 0.46099,1.76903 0.27392,-0.67703 0.29059,-2.02703 0.0371,-3 z m -1,-8 c -0.25354,-0.97297 -0.47766,-0.41903 -0.49804,1.23097 -0.0204,1.65 0.18706,2.44606 0.46099,1.76903 0.27392,-0.67703 0.29059,-2.02703 0.0371,-3 z m -74.00988,0.54347 c -0.31922,-0.79773 -0.55618,-0.56078 -0.60416,0.60417 -0.0434,1.05416 0.19293,1.64479 0.52522,1.3125 0.33229,-0.33229 0.36781,-1.1948 0.0789,-1.91667 z m 258.02415,-3.05084 c -0.23919,-1.24391 -0.44398,-0.46166 -0.45508,1.73834 -0.0111,2.2 0.18461,3.21775 0.4349,2.26166 0.25029,-0.95609 0.25937,-2.75609 0.0202,-4 z m -259.01427,-6.49263 c -0.25354,-0.97297 -0.47766,-0.41903 -0.49804,1.23097 -0.0204,1.65 0.18706,2.44606 0.46099,1.76903 0.27392,-0.67703 0.29059,-2.02703 0.0371,-3 z M 892.68933,948.25 c -0.25153,-0.9625 -0.45733,-0.175 -0.45733,1.75 0,1.925 0.2058,2.7125 0.45733,1.75 0.25152,-0.9625 0.25152,-2.5375 0,-3.5 z m -261,-5 c -0.25153,-0.9625 -0.45733,-0.175 -0.45733,1.75 0,1.925 0.2058,2.7125 0.45733,1.75 0.25152,-0.9625 0.25152,-2.5375 0,-3.5 z m 334.99378,-12.4375 c -0.31922,-0.79773 -0.55618,-0.56078 -0.60416,0.60417 -0.0434,1.05416 0.19293,1.64479 0.52522,1.3125 0.33229,-0.33229 0.36781,-1.1948 0.0789,-1.91667 z m 1.00622,-12.5625 c -0.25153,-0.9625 -0.45733,-0.175 -0.45733,1.75 0,1.925 0.2058,2.7125 0.45733,1.75 0.25152,-0.9625 0.25152,-2.5375 0,-3.5 z m -71.99634,-6.98097 c -0.25354,-0.97297 -0.47766,-0.41903 -0.49804,1.23097 -0.0204,1.65 0.18706,2.44606 0.46099,1.76903 0.27392,-0.67703 0.29059,-2.02703 0.0371,-3 z M 968.70573,907.75 c -0.23835,-1.2375 -0.43337,-0.225 -0.43337,2.25 0,2.475 0.19502,3.4875 0.43337,2.25 0.23836,-1.2375 0.23836,-3.2625 0,-4.5 z m -72.0164,-7.5 c -0.25153,-0.9625 -0.45733,-0.175 -0.45733,1.75 0,1.925 0.2058,2.7125 0.45733,1.75 0.25152,-0.9625 0.25152,-2.5375 0,-3.5 z m 73.00366,-2.98097 c -0.25354,-0.97297 -0.47766,-0.41903 -0.49804,1.23097 -0.0204,1.65 0.18706,2.44606 0.46099,1.76903 0.27392,-0.67703 0.29059,-2.02703 0.0371,-3 z M 627.68933,890.25 c -0.25153,-0.9625 -0.45733,-0.175 -0.45733,1.75 0,1.925 0.2058,2.7125 0.45733,1.75 0.25152,-0.9625 0.25152,-2.5375 0,-3.5 z m -1,-9 c -0.25153,-0.9625 -0.45733,-0.175 -0.45733,1.75 0,1.925 0.2058,2.7125 0.45733,1.75 0.25152,-0.9625 0.25152,-2.5375 0,-3.5 z m -0.99634,-9.98097 c -0.25354,-0.97297 -0.47766,-0.41903 -0.49804,1.23097 -0.0204,1.65 0.18706,2.44606 0.46099,1.76903 0.27392,-0.67703 0.29059,-2.02703 0.0371,-3 z M 972.68933,858.25 c -0.25153,-0.9625 -0.45733,-0.175 -0.45733,1.75 0,1.925 0.2058,2.7125 0.45733,1.75 0.25152,-0.9625 0.25152,-2.5375 0,-3.5 z m 1.01793,-10.48834 c -0.23919,-1.24391 -0.44398,-0.46166 -0.45508,1.73834 -0.0111,2.2 0.18461,3.21775 0.4349,2.26166 0.25029,-0.95609 0.25937,-2.75609 0.0202,-4 z M 623.68311,846.8125 c -0.31922,-0.79773 -0.55618,-0.56078 -0.60416,0.60417 -0.0434,1.05416 0.19293,1.64479 0.52522,1.3125 0.33229,-0.33229 0.36781,-1.1948 0.0789,-1.91667 z m -0.99012,-10.54347 c -0.25354,-0.97297 -0.47766,-0.41903 -0.49804,1.23097 -0.0204,1.65 0.18706,2.44606 0.46099,1.76903 0.27392,-0.67703 0.29059,-2.02703 0.0371,-3 z m 352,0 c -0.25354,-0.97297 -0.47766,-0.41903 -0.49804,1.23097 -0.0204,1.65 0.18706,2.44606 0.46099,1.76903 0.27392,-0.67703 0.29059,-2.02703 0.0371,-3 z M 621.68933,827.25 c -0.25153,-0.9625 -0.45733,-0.175 -0.45733,1.75 0,1.925 0.2058,2.7125 0.45733,1.75 0.25152,-0.9625 0.25152,-2.5375 0,-3.5 z M 906.75,821.25011 c -38.3625,-0.14504 -101.1375,-0.14504 -139.5,0 -38.3625,0.14504 -6.975,0.26371 69.75,0.26371 76.725,0 108.1125,-0.11867 69.75,-0.26371 z m -286.05701,-3.98108 c -0.25354,-0.97297 -0.47766,-0.41903 -0.49804,1.23097 -0.0204,1.65 0.18706,2.44606 0.46099,1.76903 0.27392,-0.67703 0.29059,-2.02703 0.0371,-3 z M 694.66228,805.75 c -0.27741,-0.6875 -0.50439,-0.125 -0.50439,1.25 0,1.375 0.22698,1.9375 0.50439,1.25 0.27741,-0.6875 0.27741,-1.8125 0,-2.5 z m -0.97295,-9.5 c -0.25153,-0.9625 -0.45733,-0.175 -0.45733,1.75 0,1.925 0.2058,2.7125 0.45733,1.75 0.25152,-0.9625 0.25152,-2.5375 0,-3.5 z m -75.00622,-3.4375 c -0.31922,-0.79773 -0.55618,-0.56078 -0.60416,0.60417 -0.0434,1.05416 0.19293,1.64479 0.52522,1.3125 0.33229,-0.33229 0.36781,-1.1948 0.0789,-1.91667 z m 74.00988,-3.54347 c -0.25354,-0.97297 -0.47766,-0.41903 -0.49804,1.23097 -0.0204,1.65 0.18706,2.44606 0.46099,1.76903 0.27392,-0.67703 0.29059,-2.02703 0.0371,-3 z m -75,-7 c -0.25354,-0.97297 -0.47766,-0.41903 -0.49804,1.23097 -0.0204,1.65 0.18706,2.44606 0.46099,1.76903 0.27392,-0.67703 0.29059,-2.02703 0.0371,-3 z m 73.99012,-0.45653 c -0.31922,-0.79773 -0.55618,-0.56078 -0.60416,0.60417 -0.0434,1.05416 0.19293,1.64479 0.52522,1.3125 0.33229,-0.33229 0.36781,-1.1948 0.0789,-1.91667 z m -74.97585,-9.05084 c -0.23919,-1.24391 -0.44398,-0.46166 -0.45508,1.73834 -0.0111,2.2 0.18461,3.21775 0.4349,2.26166 0.25029,-0.95609 0.25937,-2.75609 0.0202,-4 z m -1.01427,-9.49263 c -0.25354,-0.97297 -0.47766,-0.41903 -0.49804,1.23097 -0.0204,1.65 0.18706,2.44606 0.46099,1.76903 0.27392,-0.67703 0.29059,-2.02703 0.0371,-3 z M 689.66228,759.75 c -0.27741,-0.6875 -0.50439,-0.125 -0.50439,1.25 0,1.375 0.22698,1.9375 0.50439,1.25 0.27741,-0.6875 0.27741,-1.8125 0,-2.5 z m -0.96929,-8.48097 c -0.25354,-0.97297 -0.47766,-0.41903 -0.49804,1.23097 -0.0204,1.65 0.18706,2.44606 0.46099,1.76903 0.27392,-0.67703 0.29059,-2.02703 0.0371,-3 z M 687.66228,743.75 c -0.27741,-0.6875 -0.50439,-0.125 -0.50439,1.25 0,1.375 0.22698,1.9375 0.50439,1.25 0.27741,-0.6875 0.27741,-1.8125 0,-2.5 z m -74.96929,-15.48097 c -0.25354,-0.97297 -0.47766,-0.41903 -0.49804,1.23097 -0.0204,1.65 0.18706,2.44606 0.46099,1.76903 0.27392,-0.67703 0.29059,-2.02703 0.0371,-3 z M 611.68933,718.25 c -0.25153,-0.9625 -0.45733,-0.175 -0.45733,1.75 0,1.925 0.2058,2.7125 0.45733,1.75 0.25152,-0.9625 0.25152,-2.5375 0,-3.5 z m -0.99634,-8.98097 c -0.25354,-0.97297 -0.47766,-0.41903 -0.49804,1.23097 -0.0204,1.65 0.18706,2.44606 0.46099,1.76903 0.27392,-0.67703 0.29059,-2.02703 0.0371,-3 z M 987.68933,708.25 c -0.25153,-0.9625 -0.45733,-0.175 -0.45733,1.75 0,1.925 0.2058,2.7125 0.45733,1.75 0.25152,-0.9625 0.25152,-2.5375 0,-3.5 z m 1.01793,-11.48834 c -0.23919,-1.24391 -0.44398,-0.46166 -0.45508,1.73834 -0.0111,2.2 0.18461,3.21775 0.4349,2.26166 0.25029,-0.95609 0.25937,-2.75609 0.0202,-4 z M 989.68933,685.25 c -0.25153,-0.9625 -0.45733,-0.175 -0.45733,1.75 0,1.925 0.2058,2.7125 0.45733,1.75 0.25152,-0.9625 0.25152,-2.5375 0,-3.5 z m -382,-12 c -0.25153,-0.9625 -0.45733,-0.175 -0.45733,1.75 0,1.925 0.2058,2.7125 0.45733,1.75 0.25152,-0.9625 0.25152,-2.5375 0,-3.5 z m -0.99634,-7.98097 c -0.25354,-0.97297 -0.47766,-0.41903 -0.49804,1.23097 -0.0204,1.65 0.18706,2.44606 0.46099,1.76903 0.27392,-0.67703 0.29059,-2.02703 0.0371,-3 z m 167.03618,566.12677 c -0.33229,-0.3323 -1.1948,-0.3678 -1.91667,-0.079 -0.79773,0.3192 -0.56078,0.5562 0.60417,0.6042 1.05416,0.043 1.64479,-0.193 1.3125,-0.5253 z m -54,-15 c -0.33229,-0.3323 -1.1948,-0.3678 -1.91667,-0.079 -0.79773,0.3192 -0.56078,0.5562 0.60417,0.6042 1.05416,0.043 1.64479,-0.193 1.3125,-0.5253 z M 543.68933,1151.25 c -0.25153,-0.9625 -0.45733,-0.175 -0.45733,1.75 0,1.925 0.2058,2.7125 0.45733,1.75 0.25152,-0.9625 0.25152,-2.5375 0,-3.5 z m 512.99997,-1 c -0.2515,-0.9625 -0.4573,-0.175 -0.4573,1.75 0,1.925 0.2058,2.7125 0.4573,1.75 0.2516,-0.9625 0.2516,-2.5375 0,-3.5 z m -513.99631,-7.981 c -0.25354,-0.9729 -0.47766,-0.419 -0.49804,1.231 -0.0204,1.65 0.18706,2.4461 0.46099,1.769 0.27392,-0.677 0.29059,-2.027 0.0371,-3 z m 515.00001,-1 c -0.2536,-0.9729 -0.4777,-0.419 -0.4981,1.231 -0.02,1.65 0.1871,2.4461 0.461,1.769 0.274,-0.677 0.2906,-2.027 0.037,-3 z m -516.00989,-8.4565 c -0.31922,-0.7977 -0.55618,-0.5608 -0.60416,0.6042 -0.0434,1.0541 0.19293,1.6448 0.52522,1.3125 0.33229,-0.3323 0.36781,-1.1948 0.0789,-1.9167 z m 516.97919,-1.0625 c -0.2774,-0.6875 -0.5044,-0.125 -0.5044,1.25 0,1.375 0.227,1.9375 0.5044,1.25 0.2774,-0.6875 0.2774,-1.8125 0,-2.5 z m -519.95504,-36.9883 c -0.23919,-1.244 -0.44398,-0.4617 -0.45508,1.7383 -0.0111,2.2 0.18461,3.2177 0.4349,2.2617 0.25029,-0.9561 0.25937,-2.7561 0.0202,-4 z m 522.98204,-0.5117 c -0.2515,-0.9625 -0.4573,-0.175 -0.4573,1.75 0,1.925 0.2058,2.7125 0.4573,1.75 0.2516,-0.9625 0.2516,-2.5375 0,-3.5 z m -523.99631,-7.981 c -0.25354,-0.9729 -0.47766,-0.419 -0.49804,1.231 -0.0204,1.65 0.18706,2.4461 0.46099,1.769 0.27392,-0.677 0.29059,-2.027 0.0371,-3 z m 525.00001,-1 c -0.2536,-0.9729 -0.4777,-0.419 -0.4981,1.231 -0.02,1.65 0.1871,2.4461 0.461,1.769 0.274,-0.677 0.2906,-2.027 0.037,-3 z m -526.00989,-8.4565 c -0.31922,-0.7977 -0.55618,-0.5608 -0.60416,0.6042 -0.0434,1.0541 0.19293,1.6448 0.52522,1.3125 0.33229,-0.3323 0.36781,-1.1948 0.0789,-1.9167 z m 526.99999,-1 c -0.3192,-0.7977 -0.5562,-0.5608 -0.6042,0.6042 -0.043,1.0541 0.193,1.6448 0.5253,1.3125 0.3323,-0.3323 0.3678,-1.1948 0.079,-1.9167 z M 533.68933,1039.25 c -0.25153,-0.9625 -0.45733,-0.175 -0.45733,1.75 0,1.925 0.2058,2.7125 0.45733,1.75 0.25152,-0.9625 0.25152,-2.5375 0,-3.5 z m 532.99997,-1 c -0.2515,-0.9625 -0.4573,-0.175 -0.4573,1.75 0,1.925 0.2058,2.7125 0.4573,1.75 0.2516,-0.9625 0.2516,-2.5375 0,-3.5 z m -533.99631,-7.981 c -0.25354,-0.9729 -0.47766,-0.419 -0.49804,1.231 -0.0204,1.65 0.18706,2.4461 0.46099,1.769 0.27392,-0.677 0.29059,-2.027 0.0371,-3 z m 535.00001,-1 c -0.2536,-0.9729 -0.4777,-0.419 -0.4981,1.231 -0.02,1.65 0.1871,2.4461 0.461,1.769 0.274,-0.677 0.2906,-2.027 0.037,-3 z M 528.70726,982.76166 c -0.23919,-1.24391 -0.44398,-0.46166 -0.45508,1.73834 -0.0111,2.2 0.18461,3.21775 0.4349,2.26166 0.25029,-0.95609 0.25937,-2.75609 0.0202,-4 z M 1071.6893,982.25 c -0.2515,-0.9625 -0.4573,-0.175 -0.4573,1.75 0,1.925 0.2058,2.7125 0.4573,1.75 0.2516,-0.9625 0.2516,-2.5375 0,-3.5 z m -543.99997,-9 c -0.25153,-0.9625 -0.45733,-0.175 -0.45733,1.75 0,1.925 0.2058,2.7125 0.45733,1.75 0.25152,-0.9625 0.25152,-2.5375 0,-3.5 z m 544.99997,0 c -0.2515,-0.9625 -0.4573,-0.175 -0.4573,1.75 0,1.925 0.2058,2.7125 0.4573,1.75 0.2516,-0.9625 0.2516,-2.5375 0,-3.5 z M 523.70726,926.76166 c -0.23919,-1.24391 -0.44398,-0.46166 -0.45508,1.73834 -0.0111,2.2 0.18461,3.21775 0.4349,2.26166 0.25029,-0.95609 0.25937,-2.75609 0.0202,-4 z M 1076.6893,926.25 c -0.2515,-0.9625 -0.4573,-0.175 -0.4573,1.75 0,1.925 0.2058,2.7125 0.4573,1.75 0.2516,-0.9625 0.2516,-2.5375 0,-3.5 z m -553.99997,-9 c -0.25153,-0.9625 -0.45733,-0.175 -0.45733,1.75 0,1.925 0.2058,2.7125 0.45733,1.75 0.25152,-0.9625 0.25152,-2.5375 0,-3.5 z m 555.00367,0.019 c -0.2536,-0.97297 -0.4777,-0.41903 -0.4981,1.23097 -0.02,1.65 0.1871,2.44606 0.461,1.76903 0.274,-0.67703 0.2906,-2.02703 0.037,-3 z M 518.68933,871.25 c -0.25153,-0.9625 -0.45733,-0.175 -0.45733,1.75 0,1.925 0.2058,2.7125 0.45733,1.75 0.25152,-0.9625 0.25152,-2.5375 0,-3.5 z m 562.99997,-1 c -0.2515,-0.9625 -0.4573,-0.175 -0.4573,1.75 0,1.925 0.2058,2.7125 0.4573,1.75 0.2516,-0.9625 0.2516,-2.5375 0,-3.5 z m -563.99997,-9 c -0.25153,-0.9625 -0.45733,-0.175 -0.45733,1.75 0,1.925 0.2058,2.7125 0.45733,1.75 0.25152,-0.9625 0.25152,-2.5375 0,-3.5 z m 565.00367,0.019 c -0.2536,-0.97297 -0.4777,-0.41903 -0.4981,1.23097 -0.02,1.65 0.1871,2.44606 0.461,1.76903 0.274,-0.67703 0.2906,-2.02703 0.037,-3 z m -566.00989,-8.4565 c -0.31922,-0.79773 -0.55618,-0.56078 -0.60416,0.60417 -0.0434,1.05416 0.19293,1.64479 0.52522,1.3125 0.33229,-0.33229 0.36781,-1.1948 0.0789,-1.91667 z m 566.99999,-1 c -0.3192,-0.79773 -0.5562,-0.56078 -0.6042,0.60417 -0.043,1.05416 0.193,1.64479 0.5253,1.3125 0.3323,-0.33229 0.3678,-1.1948 0.079,-1.91667 z M 513.70726,814.76166 c -0.23919,-1.24391 -0.44398,-0.46166 -0.45508,1.73834 -0.0111,2.2 0.18461,3.21775 0.4349,2.26166 0.25029,-0.95609 0.25937,-2.75609 0.0202,-4 z M 1086.6893,814.25 c -0.2515,-0.9625 -0.4573,-0.175 -0.4573,1.75 0,1.925 0.2058,2.7125 0.4573,1.75 0.2516,-0.9625 0.2516,-2.5375 0,-3.5 z m -573.99631,-8.98097 c -0.25354,-0.97297 -0.47766,-0.41903 -0.49804,1.23097 -0.0204,1.65 0.18706,2.44606 0.46099,1.76903 0.27392,-0.67703 0.29059,-2.02703 0.0371,-3 z m 575.00001,0 c -0.2536,-0.97297 -0.4777,-0.41903 -0.4981,1.23097 -0.02,1.65 0.1871,2.44606 0.461,1.76903 0.274,-0.67703 0.2906,-2.02703 0.037,-3 z M 511.66228,795.75 c -0.27741,-0.6875 -0.50439,-0.125 -0.50439,1.25 0,1.375 0.22698,1.9375 0.50439,1.25 0.27741,-0.6875 0.27741,-1.8125 0,-2.5 z m 577.02082,0.0625 c -0.3192,-0.79773 -0.5562,-0.56078 -0.6042,0.60417 -0.043,1.05416 0.193,1.64479 0.5253,1.3125 0.3323,-0.33229 0.3678,-1.1948 0.079,-1.91667 z M 508.68933,758.25 c -0.25153,-0.9625 -0.45733,-0.175 -0.45733,1.75 0,1.925 0.2058,2.7125 0.45733,1.75 0.25152,-0.9625 0.25152,-2.5375 0,-3.5 z m 582.99997,0 c -0.2515,-0.9625 -0.4573,-0.175 -0.4573,1.75 0,1.925 0.2058,2.7125 0.4573,1.75 0.2516,-0.9625 0.2516,-2.5375 0,-3.5 z m -583.99997,-9 c -0.25153,-0.9625 -0.45733,-0.175 -0.45733,1.75 0,1.925 0.2058,2.7125 0.45733,1.75 0.25152,-0.9625 0.25152,-2.5375 0,-3.5 z m 584.99997,-1 c -0.2515,-0.9625 -0.4573,-0.175 -0.4573,1.75 0,1.925 0.2058,2.7125 0.4573,1.75 0.2516,-0.9625 0.2516,-2.5375 0,-3.5 z M 504.69299,714.26903 c -0.25354,-0.97297 -0.47766,-0.41903 -0.49804,1.23097 -0.0204,1.65 0.18706,2.44606 0.46099,1.76903 0.27392,-0.67703 0.29059,-2.02703 0.0371,-3 z M 503.68933,702.25 c -0.25153,-0.9625 -0.45733,-0.175 -0.45733,1.75 0,1.925 0.2058,2.7125 0.45733,1.75 0.25152,-0.9625 0.25152,-2.5375 0,-3.5 z m 592.99997,0 c -0.2515,-0.9625 -0.4573,-0.175 -0.4573,1.75 0,1.925 0.2058,2.7125 0.4573,1.75 0.2516,-0.9625 0.2516,-2.5375 0,-3.5 z m -593.99997,-9 c -0.25153,-0.9625 -0.45733,-0.175 -0.45733,1.75 0,1.925 0.2058,2.7125 0.45733,1.75 0.25152,-0.9625 0.25152,-2.5375 0,-3.5 z m 595.00367,0.019 c -0.2536,-0.97297 -0.4777,-0.41903 -0.4981,1.23097 -0.02,1.65 0.1871,2.44606 0.461,1.76903 0.274,-0.67703 0.2906,-2.02703 0.037,-3 z m 0.9901,-9.45653 c -0.3192,-0.79773 -0.5562,-0.56078 -0.6042,0.60417 -0.043,1.05416 0.193,1.64479 0.5253,1.3125 0.3323,-0.33229 0.3678,-1.1948 0.079,-1.91667 z M 498.70726,646.76166 c -0.23919,-1.24391 -0.44398,-0.46166 -0.45508,1.73834 -0.0111,2.2 0.18461,3.21775 0.4349,2.26166 0.25029,-0.95609 0.25937,-2.75609 0.0202,-4 z M 1101.6893,646.25 c -0.2515,-0.9625 -0.4573,-0.175 -0.4573,1.75 0,1.925 0.2058,2.7125 0.4573,1.75 0.2516,-0.9625 0.2516,-2.5375 0,-3.5 z m -603.99997,-9 c -0.25153,-0.9625 -0.45733,-0.175 -0.45733,1.75 0,1.925 0.2058,2.7125 0.45733,1.75 0.25152,-0.9625 0.25152,-2.5375 0,-3.5 z m 605.00367,0.019 c -0.2536,-0.97297 -0.4777,-0.41903 -0.4981,1.23097 -0.02,1.65 0.1871,2.44606 0.461,1.76903 0.274,-0.67703 0.2906,-2.02703 0.037,-3 z m -606.00989,-9.4565 c -0.31922,-0.79773 -0.55618,-0.56078 -0.60416,0.60417 -0.0434,1.05416 0.19293,1.64479 0.52522,1.3125 0.33229,-0.33229 0.36781,-1.1948 0.0789,-1.91667 z m 606.99999,0 c -0.3192,-0.79773 -0.5562,-0.56078 -0.6042,0.60417 -0.043,1.05416 0.193,1.64479 0.5253,1.3125 0.3323,-0.33229 0.3678,-1.1948 0.079,-1.91667 z M 493.68933,590.25 c -0.25153,-0.9625 -0.45733,-0.175 -0.45733,1.75 0,1.925 0.2058,2.7125 0.45733,1.75 0.25152,-0.9625 0.25152,-2.5375 0,-3.5 z m 612.99997,0 c -0.2515,-0.9625 -0.4573,-0.175 -0.4573,1.75 0,1.925 0.2058,2.7125 0.4573,1.75 0.2516,-0.9625 0.2516,-2.5375 0,-3.5 z m -613.99631,-8.98097 c -0.25354,-0.97297 -0.47766,-0.41903 -0.49804,1.23097 -0.0204,1.65 0.18706,2.44606 0.46099,1.76903 0.27392,-0.67703 0.29059,-2.02703 0.0371,-3 z m 615.00001,0 c -0.2536,-0.97297 -0.4777,-0.41903 -0.4981,1.23097 -0.02,1.65 0.1871,2.44606 0.461,1.76903 0.274,-0.67703 0.2906,-2.02703 0.037,-3 z M 491.68311,571.8125 c -0.31922,-0.79773 -0.55618,-0.56078 -0.60416,0.60417 -0.0434,1.05416 0.19293,1.64479 0.52522,1.3125 0.33229,-0.33229 0.36781,-1.1948 0.0789,-1.91667 z m 616.99999,0 c -0.3192,-0.79773 -0.5562,-0.56078 -0.6042,0.60417 -0.043,1.05416 0.193,1.64479 0.5253,1.3125 0.3323,-0.33229 0.3678,-1.1948 0.079,-1.91667 z M 488.66228,535.75 c -0.27741,-0.6875 -0.50439,-0.125 -0.50439,1.25 0,1.375 0.22698,1.9375 0.50439,1.25 0.27741,-0.6875 0.27741,-1.8125 0,-2.5 z m 623.00002,0 c -0.2774,-0.6875 -0.5044,-0.125 -0.5044,1.25 0,1.375 0.227,1.9375 0.5044,1.25 0.2774,-0.6875 0.2774,-1.8125 0,-2.5 z M 955.25,532.25002 c -85.3875,-0.14097 -225.1125,-0.14097 -310.5,0 -85.3875,0.14097 -15.525,0.25631 155.25,0.25631 170.775,0 240.6375,-0.11534 155.25,-0.25631 z M 588,461.5 V 442 h 17.5 17.5 v 19.5 19.5 h 20.50793 20.50793 L 663.75793,421.75 663.5,362.5 643.25,362.22929 623,361.95859 V 381.47929 401 H 605.5 588 v -19.52071 -19.5207 l -20.25,0.2707 L 547.5,362.5 547.24207,421.75 546.98414,481 H 567.49207 588 Z M 712.74897,423.31622 C 712.58741,412.4173 712.45499,421.05 712.45471,442.5 c -2.9e-4,21.45 0.1319,30.3673 0.29375,19.81622 0.16184,-10.55108 0.16207,-28.10108 5.1e-4,-39 z M 755,442 v -39 h 17 17 V 382.5 362 H 734.5 680 v 20.5 20.5 h 17 17 v 39 39 h 20.5 20.5 z m 90.23443,10.97487 0.26557,-28.02514 4.2847,6.56448 c 2.35659,3.61046 4.01064,7.00792 3.67567,7.54991 -0.33497,0.54199 -0.1539,0.86178 0.40238,0.71066 1.47455,-0.40061 11.32779,15.0918 10.50754,16.52118 -0.38002,0.66222 -0.33405,0.8818 0.10214,0.48795 0.43619,-0.39385 1.63334,0.35213 2.66032,1.65773 2.15593,2.74081 2.41729,3.99293 0.61725,2.95705 -0.6875,-0.39564 -1.025,-0.45969 -0.75,-0.14235 0.275,0.31735 0.95,0.68234 1.5,0.81109 0.55,0.12876 1.5625,0.95376 2.25,1.83334 1.47667,1.88923 1.21154,2.17885 8.57331,-9.36491 2.65282,-4.1598 5.23516,-7.30874 5.73854,-6.99763 0.50371,0.3113 0.61916,-0.20594 0.25676,-1.15034 -0.48212,-1.25638 -0.30375,-1.49674 0.66596,-0.89743 0.86938,0.53731 1.08529,0.43159 0.62838,-0.30771 -0.91699,-1.48371 2.30342,-6.35247 3.65094,-5.51966 0.61165,0.37802 0.74666,0.163 0.32552,-0.51842 -0.72334,-1.17039 5.33281,-11.55578 6.22082,-10.66778 0.26112,0.26113 -0.15185,1.24703 -0.91773,2.1909 -0.88407,1.08954 -0.94252,1.4459 -0.16007,0.97601 0.95983,-0.57641 1.30014,4.63429 1.53859,23.55804 l 0.30617,24.29816 0.11998,-26.82524 c 0.066,-14.75388 0.38611,-27.09138 0.7114,-27.41666 C 898.73386,424.93281 899,437.34167 899,452.83333 V 481 h 20 20 V 421.5 362 h -21.03138 c -17.73615,0 -21.12123,0.23412 -21.60479,1.49426 -0.31537,0.82184 -0.97109,1.24847 -1.45716,0.94806 -0.48607,-0.30041 -0.58744,0.226 -0.22528,1.16979 0.42773,1.11464 0.27272,1.47756 -0.44235,1.03562 -0.60547,-0.37419 -1.42647,-0.15348 -1.82445,0.49047 -0.45192,0.73122 -0.29014,0.90292 0.4309,0.45729 1.64734,-1.01811 1.42808,0.18015 -0.59549,3.25443 -0.9625,1.46226 -2.28473,3.55673 -2.93828,4.65437 -0.65355,1.09764 -2.8585,4.79308 -4.89988,8.2121 -2.04138,3.41901 -4.06306,5.99917 -4.49262,5.73368 -0.42956,-0.26548 -1.10665,0.0442 -1.50463,0.68813 -0.47801,0.77343 -0.28773,0.90143 0.56063,0.37711 1.5811,-0.97717 1.36606,-0.46387 -2.82136,6.73471 -1.83964,3.1625 -3.71574,5.52076 -4.16911,5.24056 C 871.18345,401.99534 866,393.18221 866,392.31503 c 0,-0.23819 0.5625,-0.10936 1.25,0.28628 0.6875,0.39564 0.95,0.38469 0.58333,-0.0243 -0.36666,-0.40901 -0.89658,-0.59366 -1.17758,-0.41032 -1.12128,0.73154 -6.77743,-8.4072 -6.17501,-9.97708 0.34373,-0.89574 0.30722,-1.31089 -0.0811,-0.92254 -1.01343,1.01343 -5.54235,-5.45269 -4.9324,-7.04219 0.28043,-0.7308 0.16296,-1.11433 -0.26105,-0.85228 -0.71385,0.44119 -2.23728,-1.55976 -6.58019,-8.64276 l -1.69852,-2.77018 -20.71372,0.27018 L 805.5,362.5 805.24207,421.75 804.98414,481 h 19.99236 19.99235 z m 3.03284,-21.33125 c 0.74133,0.44519 0.64792,-0.0338 -0.2343,-1.20166 -0.80687,-1.06808 -1.59437,-2.12946 -1.75,-2.35863 -0.15563,-0.22916 -0.17855,11.69584 -0.0509,26.5 l 0.23204,26.91667 0.28523,-25.29834 c 0.22239,-19.7239 0.55686,-25.13522 1.51796,-24.55804 z M 940.74942,392.25 c -0.15418,-16.3625 -0.28033,-2.975 -0.28033,29.75 0,32.725 0.12615,46.1125 0.28033,29.75 0.15419,-16.3625 0.15419,-43.1375 0,-59.5 z M 1054,461 v -20 h -28 -28 V 401.5 362 h -20 -20 v 59.5 59.5 h 48 48 z M 614.79748,443.25755 c -4.23638,-0.18698 -11.43638,-0.18802 -16,-0.002 -4.56361,0.18571 -1.09748,0.33869 7.70252,0.33996 8.8,0.001 12.53387,-0.15068 8.29748,-0.33766 z M 790.74486,372.19681 C 790.56541,366.86356 790.4193,371.5 790.42019,382.5 c 8.8e-4,11 0.14771,15.36356 0.32628,9.69681 0.17857,-5.66676 0.17784,-14.66676 -0.002,-20 z m 82.65213,27.96986 c 0.28327,-0.45834 -0.12038,-0.83334 -0.89699,-0.83334 -0.77661,0 -1.18026,0.375 -0.89699,0.83334 C 871.88627,400.625 872.28992,401 872.5,401 c 0.21008,0 0.61373,-0.375 0.89699,-0.83333 z"
       id="path863" />
    <path
       style="fill:#000000;stroke-width:3.90244"
       d="m 670.14215,1199.0086 c -104.47438,-29.2129 -120.30827,-34.6338 -121.68895,-41.6614 -0.87297,-4.4434 -9.67137,-100.274 -19.55199,-212.95696 C 519.02058,831.70732 506.99419,694.73171 502.17589,640 l -8.76054,-99.5122 153.29233,-1.02038 c 84.31077,-0.56122 222.27211,-0.56122 306.58075,0 l 153.28847,1.02038 -8.5829,97.56098 c -4.7206,53.65854 -16.762,190.63415 -26.7586,304.39024 -9.9966,113.75608 -18.8608,210.41558 -19.6983,214.79888 -1.3192,6.9048 -17.9015,12.5097 -124.1133,41.9512 -67.42482,18.6899 -125.87319,33.8512 -129.88525,33.6918 -4.01206,-0.1592 -61.34043,-15.4019 -127.3964,-33.8723 z M 880.9234,1083.5221 c 41.28835,-11.3594 76.00647,-21.5902 77.15141,-22.7351 2.02638,-2.0264 21.27059,-213.03472 21.3817,-234.44554 l 0.0557,-10.7317 H 839.02439 698.53659 l -0.2004,-8.78049 C 698.22599,802 696.81775,786.19512 695.20681,771.70732 l -2.92898,-26.34147 h 147.6421 c 114.69829,0 147.98255,-1.08845 149.16787,-4.87805 0.83919,-2.68292 2.64613,-22 4.01542,-42.92682 l 2.48964,-38.04878 H 798.23812 600.88338 l 1.99523,14.63414 c 1.09738,8.04878 5.54621,55.90244 9.88629,106.34146 4.34008,50.43903 8.88562,98.29269 10.10122,106.34147 l 2.21016,14.63414 h 133.71828 133.71826 l -1.77389,20.48781 c -0.97565,11.26829 -2.91298,32.64538 -4.30521,47.50466 l -2.53128,27.01686 -41.95122,11.69616 L 800,1019.865 l -41.95122,-11.6725 -41.95122,-11.67238 -3.52939,-29.96738 -3.52939,-29.96737 h -40.37305 -40.37305 l 0.1689,16.58536 c 0.24336,23.89542 10.20854,104.36117 13.30837,107.46107 3.00454,3.0045 149.34552,43.1214 158.23004,43.3761 3.21951,0.092 39.63504,-9.1263 80.92341,-20.4858 z"
       id="path916" />
    <path
       style="fill:#000000;stroke-width:3.90244"
       d="m 717.20969,440 -1.11213,-40 -16.58536,-1.19999 c -16.50474,-1.19416 -16.58537,-1.27479 -16.58537,-16.58537 v -15.38537 h 50.73171 50.7317 v 15.60975 15.60976 H 768.78049 753.17073 V 439.02439 480 h -17.42445 -17.42446 z"
       id="path955" />
    <path
       style="fill:#000000;stroke-width:3.90244"
       d="m 550.2439,423.41463 v -56.58536 h 17.34716 17.34716 l 1.18942,18.53658 1.18943,18.53659 18.53659,1.18943 18.53658,1.18943 v -19.72602 -19.72601 h 17.56098 17.56098 V 423.41463 480 h -17.56098 -17.56098 v -19.5122 -19.51219 h -19.51219 -19.5122 V 460.4878 480 H 567.80488 550.2439 Z"
       id="path994" />
    <path
       style="fill:#000000;stroke-width:3.90244"
       d="m 807.80488,423.41463 v -56.58536 h 19.17746 c 18.81054,0 19.40719,0.37333 31.18344,19.51219 6.60329,10.73171 12.91649,19.5122 14.02934,19.5122 1.11285,0 7.42605,-8.78049 14.02934,-19.5122 11.77626,-19.13886 12.37291,-19.51219 31.18344,-19.51219 h 19.17747 V 423.41463 480 h -17.39683 -17.39682 l -1.13976,-30.2439 -1.13976,-30.2439 -13.73358,20.07404 -13.73357,20.07405 -13.5835,-20.07405 -13.5835,-20.07404 -1.13976,30.2439 L 842.59852,480 H 825.2017 807.80488 Z"
       id="path1033" />
    <path
       style="fill:#000000;stroke-width:3.90244"
       d="m 960,423.41463 v -56.58536 h 17.56098 17.56097 v 39.02439 39.02439 h 27.31705 27.3171 V 462.43902 480 H 1004.878 960 Z"
       id="path1072" />
  </g>
</svg>
