<?xml version="1.0" encoding="UTF-8" standalone="no"?>
<!-- Created with Inkscape (http://www.inkscape.org/) -->

<svg
   version="1.1"
   id="svg2"
   width="920"
   height="920"
   viewBox="0 0 920 920"
   sodipodi:docname="02.svg"
   inkscape:version="1.1.2 (b8e25be833, 2022-02-05)"
   xmlns:inkscape="http://www.inkscape.org/namespaces/inkscape"
   xmlns:sodipodi="http://sodipodi.sourceforge.net/DTD/sodipodi-0.dtd"
   xmlns="http://www.w3.org/2000/svg"
   xmlns:svg="http://www.w3.org/2000/svg">
  <defs
     id="defs6" />
  <sodipodi:namedview
     id="namedview4"
     pagecolor="#ffffff"
     bordercolor="#666666"
     borderopacity="1.0"
     inkscape:pageshadow="2"
     inkscape:pageopacity="0.0"
     inkscape:pagecheckerboard="0"
     showgrid="false"
     inkscape:zoom="0.44565217"
     inkscape:cx="280.4878"
     inkscape:cy="577.80488"
     inkscape:window-width="1920"
     inkscape:window-height="1013"
     inkscape:window-x="-9"
     inkscape:window-y="-9"
     inkscape:window-maximized="1"
     inkscape:current-layer="g8" />
  <g
     inkscape:groupmode="layer"
     inkscape:label="Image"
     id="g8">
    <path
       style="fill:#ffffff;fill-opacity:1"
       d="M 444,873.85551 C 340.13479,870.56305 241.85814,827.67118 167.04458,752.98107 98.553855,684.60336 57.478715,597.70699 47.462686,500 45.789889,483.68176 45.189165,443.13256 46.425657,430 49.14557,401.11231 52.670589,379.7856 58.49158,357 86.140051,248.77325 157.46937,155.41325 255,99.798231 310.7881,67.986111 374.79442,49.163503 437,46.276722 c 26.88228,-1.247529 46.67686,-0.651811 73,2.196936 31.2213,3.378838 69.53954,13.181115 102.44172,26.205854 107.13803,42.411938 191.10351,126.647828 233.46141,234.213288 12.79907,32.50252 21.18065,65.59314 25.48297,100.6072 2.26823,18.45987 2.73579,27.17497 2.73612,51 7.1e-4,52.25595 -8.16776,97.5278 -26.34301,146 -47.27235,126.07222 -155.6622,222.69724 -286.50759,255.40952 -26.63573,6.65912 -52.83201,10.63674 -76.77162,11.65692 -7.15,0.3047 -14.35,0.64774 -16,0.7623 -1.65,0.11457 -12.675,-0.0984 -24.5,-0.47323 z m 89,-184.21745 71.5,-19.28929 2.15872,-23.42439 c 1.18729,-12.88341 2.44546,-26.57438 2.79592,-30.42438 1.7087,-18.77101 4.55937,-49.54633 5.00194,-54 0.27327,-2.75 1.41421,-15.125 2.53543,-27.5 1.12122,-12.375 2.24982,-24.525 2.50799,-27 0.25817,-2.475 1.38677,-14.625 2.50799,-27 1.12122,-12.375 2.25791,-24.75 2.52598,-27.5 0.26807,-2.75 1.38944,-14.9 2.49194,-27 1.10249,-12.1 2.21442,-24.025 2.47095,-26.5 0.25653,-2.475 1.38731,-14.85 2.51286,-27.5 1.12554,-12.65 2.2401,-24.8 2.47679,-27 0.2367,-2.2 0.90908,-9.625 1.49418,-16.5 0.5851,-6.875 1.28413,-14.1875 1.55338,-16.25 L 638.02364,309 H 460.03095 282.03826 l 0.49743,4.25 c 0.27359,2.3375 1.37689,13.925 2.45178,25.75 3.66407,40.30896 6.06574,66.47117 10.51102,114.5 2.44343,26.4 6.24857,67.8 8.45585,92 2.20728,24.2 4.25177,46.475 4.54331,49.5 0.70907,7.35738 4.24016,45.59053 5.07961,55 0.36801,4.125 0.95118,10.39191 1.29592,13.92648 l 0.62682,6.42647 23.5,6.33753 c 12.925,3.48563 44.875,12.13925 71,19.23026 26.125,7.09101 48.4,12.91836 49.5,12.94968 1.1,0.0313 34.175,-8.62325 73.5,-19.23236 z M 420,621.44495 c -21.175,-6.21957 -41.2,-12.15014 -44.5,-13.17903 l -6,-1.87071 -1.14299,-12.44761 c -0.62864,-6.84618 -1.45011,-16.4976 -1.82548,-21.4476 -0.37537,-4.95 -1.09072,-13.05 -1.58968,-18 -0.49895,-4.95 -0.91499,-10.4625 -0.92452,-12.25 L 364,539 h 21.9121 21.9121 l 0.53937,3.75 c 0.29665,2.0625 0.80277,7.35 1.12471,11.75 0.79128,10.81458 1.61005,17.90855 2.12823,18.43938 0.2359,0.24165 11.43004,3.45383 24.87588,7.13816 l 24.44696,6.69878 24.12505,-7.31621 c 13.26877,-4.02392 24.3367,-7.52788 24.59539,-7.78657 0.2587,-0.25869 1.09754,-10.52857 1.86411,-22.82195 0.76656,-12.29337 1.63038,-24.93909 1.91959,-28.10159 L 513.96934,515 H 436.98467 360 l -0.0382,-2.25 c -0.021,-1.2375 -0.65034,-11.025 -1.39853,-21.75 -0.7482,-10.725 -1.06852,-19.797 -0.71182,-20.16 0.35669,-0.363 24.58204,-10.74536 53.83411,-23.0719 l 53.18558,-22.41191 -55.93558,0.45124 C 378.17101,426.05561 353,425.9128 353,425.49007 c 0,-0.42273 -1.38602,-10.19492 -3.08003,-21.71597 -1.69402,-11.52105 -2.93152,-21.09346 -2.75,-21.27202 0.18151,-0.17855 50.39253,-0.63874 111.58003,-1.02263 l 111.25,-0.69799 -0.0205,3.85927 c -0.0257,4.82068 -2.83574,40.58635 -3.20691,40.81653 -0.1499,0.093 -24.20979,10.26561 -53.46643,22.60588 L 460.11222,470.5 l 51.54447,0.25905 51.54447,0.25906 -0.65425,7.24094 c -0.35984,3.98252 -0.85872,9.49095 -1.10862,12.24095 -0.24989,2.75 -2.50847,29.975 -5.01907,60.5 -2.51059,30.525 -4.86948,55.77503 -5.24197,56.11118 -0.68249,0.61592 -91.59946,25.99513 -92.30062,25.76545 C 458.66948,632.80878 441.175,627.66452 420,621.44495 Z M 409,266.5 V 256 H 393.5 378 V 245 234 H 393.5 409 V 222.5 211 h -27.25001 -27.25 l -0.0115,33 -0.0115,33 h 27.26153 27.26153 v -10.5 z m 79,0.26565 V 256.53129 L 476.76631,245.26565 465.53262,234 H 476.76631 488 V 222.5 211 H 460.5 433 v 11.89337 11.89336 l 10.5,9.73677 c 5.775,5.35523 10.5,10.12821 10.5,10.60664 C 454,255.60856 449.275,256 443.5,256 H 433 v 10.5 10.5 h 27.5 27.5 z m 77.54366,-0.28157 -0.10952,-10.51593 L 554.48412,244.98408 543.53411,234 h 11.0416 11.04159 l -0.0587,-11.49994 -0.0586,-11.49993 -27.25,-7e-5 L 511,211 v 11.87759 11.87759 l 10.5,9.96637 c 5.775,5.4815 10.5,10.26158 10.5,10.62241 C 532,255.70478 527.275,256 521.5,256 H 511 v 10.5 10.5 h 27.32659 27.32659 z"
       id="path991" />
    <path
       style="fill:#000000"
       id="path863"
       d="" />
    <path
       style="fill:#000000;fill-opacity:1;stroke-width:2.2439"
       d="M 385.54353,688.11645 C 348.91198,678.04509 318.3593,669.20829 317.64869,668.47916 316.93808,667.75 309.33812,590.50366 300.75988,496.82061 292.18165,403.13757 284.71211,322.70122 284.16092,318.07317 l -1.00217,-8.41463 H 460 636.84126 l -0.99105,8.41463 c -0.54506,4.62805 -8.02899,85.11246 -16.63095,178.85424 -8.60195,93.74178 -16.3904,171.09042 -17.30764,171.88586 -1.84869,1.60321 -5.09268,2.51104 -83.57774,23.38923 -30.23242,8.04226 -57.49242,14.53304 -60.57778,14.42392 -3.08537,-0.10912 -35.58103,-8.4386 -72.21257,-18.50997 z m 107.71965,-63.30642 c 62.23888,-17.44021 58.19041,-15.7326 59.66247,-25.16529 1.72352,-11.04407 10.29386,-113.55563 10.29386,-123.12703 v -7.45285 l -46.8919,-0.6056 -46.89192,-0.6056 48.50425,-20.33878 c 55.22726,-23.15786 50.36636,-18.33232 52.59876,-52.21627 l 1.08429,-16.45749 -112.47003,1.59715 c -61.85852,0.87844 -112.67028,1.75285 -112.91502,1.94313 -0.56075,0.43598 3.52946,32.14272 5.01429,38.87001 1.09994,4.98349 1.3549,5.01039 53.17422,5.60975 l 52.06899,0.60225 -49.85748,21.06195 -49.85747,21.06194 v 9.46256 c 0,5.2044 0.64872,15.66921 1.44161,23.25513 l 1.44161,13.79257 h 76.30233 76.30232 l -1.57201,26.36585 c -0.8646,14.50122 -2.27498,27.02696 -3.13417,27.83496 -0.85921,0.80801 -11.71887,4.5783 -24.1326,8.37844 l -22.57042,6.90932 -23.26975,-6.65118 c -12.79837,-3.65814 -24.08353,-7.93332 -25.07815,-9.50037 -0.99462,-1.56707 -1.82385,-7.56298 -1.84275,-13.32422 -0.058,-17.68334 0.0996,-17.57377 -25.27932,-17.57377 h -22.5209 l 1.50303,20.75609 c 0.82667,11.41586 2.10746,26.93738 2.8462,34.49226 l 1.34316,13.73614 41.79283,12.50325 c 22.98606,6.8768 44.64419,12.56015 48.12918,12.62971 3.48499,0.0696 19.13621,-3.46025 34.78049,-7.84401 z"
       id="path1677" />
    <path
       style="fill:#000000;fill-opacity:1;stroke-width:2.2439"
       d="m 354.53659,243.46341 v -32.53658 h 26.92682 26.92683 v 11.21951 11.21951 h -15.70731 -15.70732 v 12.34147 12.34146 h 15.70732 15.70731 V 267.02439 276 h -26.92683 -26.92682 z"
       id="path1716" />
    <path
       style="fill:#000000;fill-opacity:1;stroke-width:2.2439"
       d="m 433.07317,267.02439 c 0,-8.59804 0.30677,-8.98224 7.29268,-9.13332 15.65696,-0.3386 16.20683,-2.33231 3.968,-14.38711 -10.40581,-10.24934 -11.26068,-11.90691 -11.26068,-21.83424 V 210.92683 H 460 486.92683 v 11.21951 11.21951 h -11.70384 -11.70383 l 11.70383,11.85105 c 10.38676,10.5174 11.70384,12.9163 11.70384,21.31707 V 276 H 460 433.07317 Z"
       id="path1755" />
    <path
       style="fill:#000000;fill-opacity:1;stroke-width:2.2439"
       d="m 511.60976,267.02439 c 0,-8.62335 0.28621,-8.97696 7.29268,-9.00997 14.36572,-0.0677 15.06817,-3.22244 3.36353,-15.10578 -9.67635,-9.82406 -10.65621,-11.79188 -10.65621,-21.40035 v -10.58146 h 26.92683 26.92682 v 11.21951 11.21951 h -11.545 -11.54501 l 11.54501,12.20714 c 9.99708,10.57045 11.545,13.42858 11.545,21.31708 V 276 h -26.92682 -26.92683 z"
       id="path1794" />
  </g>
</svg>
