<?xml version="1.0" encoding="UTF-8" standalone="no"?>
<!-- Created with Inkscape (http://www.inkscape.org/) -->

<svg
   version="1.1"
   id="svg2"
   width="1600"
   height="1600"
   viewBox="0 0 1600 1600"
   sodipodi:docname="03.svg"
   inkscape:version="1.1.2 (b8e25be833, 2022-02-05)"
   xmlns:inkscape="http://www.inkscape.org/namespaces/inkscape"
   xmlns:sodipodi="http://sodipodi.sourceforge.net/DTD/sodipodi-0.dtd"
   xmlns="http://www.w3.org/2000/svg"
   xmlns:svg="http://www.w3.org/2000/svg">
  <defs
     id="defs6" />
  <sodipodi:namedview
     id="namedview4"
     pagecolor="#ffffff"
     bordercolor="#666666"
     borderopacity="1.0"
     inkscape:pageshadow="2"
     inkscape:pageopacity="0"
     inkscape:pagecheckerboard="0"
     showgrid="false"
     inkscape:zoom="0.36239223"
     inkscape:cx="822.31345"
     inkscape:cy="834.73093"
     inkscape:window-width="1920"
     inkscape:window-height="1013"
     inkscape:window-x="-9"
     inkscape:window-y="-9"
     inkscape:window-maximized="1"
     inkscape:current-layer="g8" />
  <g
     inkscape:groupmode="layer"
     inkscape:label="Image"
     id="g8">
    <path
       style="fill:#ffffff;fill-opacity:1"
       d="m 771.31492,1518.7006 c -0.27172,-0.4397 -4.16623,-0.8229 -8.65448,-0.8516 -13.25982,-0.085 -29.03555,-1.1816 -42.02436,-2.9219 -4.32515,-0.5795 -8.48765,-0.8143 -9.25,-0.5218 -0.76234,0.2926 -1.38608,0.1485 -1.38608,-0.3202 0,-0.4687 -3.0375,-1.171 -6.75,-1.5607 -11.13523,-1.169 -12.4093,-1.3658 -30.4182,-4.7003 -9.53249,-1.765 -18.5693,-3.235 -20.0818,-3.2666 -1.5125,-0.032 -2.75,-0.3554 -2.75,-0.7196 0,-0.3642 -1.9125,-0.9797 -4.25,-1.3679 -6.43403,-1.0685 -6.93142,-1.1725 -11.52697,-2.4099 -2.34805,-0.6323 -4.70879,-0.8779 -5.2461,-0.5458 -0.53731,0.332 -0.97693,0.1629 -0.97693,-0.3758 0,-0.8972 -3.4727,-2.0092 -8.5,-2.7219 -3.52145,-0.4991 -33.74363,-9.4796 -43.75691,-13.0022 -3.7163,-1.3074 -6.9981,-2.3389 -7.29289,-2.2922 -0.29479,0.047 -1.75418,-0.3947 -3.24309,-0.981 -1.48891,-0.5862 -8.78211,-3.3063 -16.20711,-6.0446 -18.60332,-6.8609 -32.42281,-12.5157 -47.5,-19.4366 -78.50819,-36.0374 -148.93925,-85.0408 -210.0292,-146.1308 -28.51383,-28.5138 -59.27039,-64.8202 -78.38513,-92.5292 -18.21596,-26.4061 -32.67885,-49.383 -43.11763,-68.5 -9.88013,-18.094 -26.48851,-52.1034 -31.00997,-63.5 -0.98193,-2.475 -3.20503,-7.875 -4.94022,-12 -1.73519,-4.125 -4.71632,-11.775 -6.62473,-17 -1.9084,-5.225 -4.53983,-12.425 -5.84761,-16 -1.30778,-3.575 -3.81461,-11 -5.57073,-16.5 -1.75611,-5.5 -4.07922,-12.6182 -5.16245,-15.8182 -1.08323,-3.2 -2.17464,-7.02503 -2.42535,-8.50001 -0.25071,-1.47498 -1.31148,-5.38179 -2.35727,-8.68179 -1.0458,-3.3 -2.41221,-8.5875 -3.03647,-11.75 -0.62427,-3.1625 -1.57969,-5.75 -2.12315,-5.75 -0.54347,0 -0.70457,-0.4588 -0.35801,-1.01955 0.34657,-0.56075 0.1628,-2.47325 -0.40838,-4.25 C 99.532527,964.9537 98.812031,961.925 98.502598,960 c -1.287953,-8.01243 -1.757793,-10 -2.363889,-10 -0.35129,0 -0.668076,-1.2375 -0.703969,-2.75 -0.09492,-3.99964 -3.542389,-22.6618 -4.294988,-23.25 -0.351864,-0.275 -0.675883,-1.85 -0.720042,-3.5 -0.04416,-1.65 -1.493449,-13.35 -3.220642,-26 C 83.271494,865.73436 82.256153,854.21494 82.152956,837.25 82.125355,832.7125 81.742148,829 81.301386,829 80.860624,829 80.5,815.95 80.5,800 c 0,-15.95 0.360624,-29 0.801386,-29 0.440762,0 0.823969,-3.7125 0.85157,-8.25 0.09185,-15.10005 1.140092,-28.62174 3.779236,-48.75 1.045652,-7.975 1.930102,-15.175 1.965443,-16 0.03534,-0.825 0.563127,-4.425 1.172858,-8 0.609731,-3.575 1.180805,-8.075 1.269054,-10 0.08825,-1.925 0.448341,-3.725 0.800205,-4 0.752599,-0.5882 4.200073,-19.25036 4.294988,-23.25 0.03589,-1.5125 0.363206,-2.75 0.727362,-2.75 0.364156,0 0.981045,-1.9125 1.370864,-4.25 0.38982,-2.3375 0.895568,-5.375 1.123885,-6.75 0.228318,-1.375 0.880924,-3.9537 1.450239,-5.73045 0.56931,-1.77675 0.75156,-3.68925 0.40499,-4.25 C 100.16552,628.4588 100.32662,628 100.87009,628 c 0.54346,0 1.49888,-2.5875 2.12315,-5.75 0.62426,-3.1625 1.99067,-8.45 3.03647,-11.75 1.04579,-3.3 2.10656,-7.20681 2.35727,-8.68179 0.25071,-1.47498 1.34212,-5.29998 2.42535,-8.5 1.08323,-3.20002 3.40634,-10.31821 5.16245,-15.81821 1.75612,-5.5 4.26295,-12.925 5.57073,-16.5 1.30778,-3.575 3.93921,-10.775 5.84761,-16 1.90841,-5.225 4.88954,-12.875 6.62473,-17 1.73519,-4.125 3.95829,-9.525 4.94022,-12 4.52146,-11.39659 21.12984,-45.40604 31.00997,-63.5 10.41653,-19.07627 26.28345,-44.2718 43.13799,-68.5 20.15929,-28.97873 49.73046,-63.89489 78.36477,-92.5292 61.08995,-61.08995 131.52101,-110.09337 210.0292,-146.13082 15.07719,-6.92085 28.89668,-12.57565 47.5,-19.43655 7.425,-2.73834 14.7182,-5.45844 16.20711,-6.04467 1.48891,-0.58623 3.06391,-1.07051 3.5,-1.07619 0.43609,-0.006 3.71789,-1.03714 7.29289,-2.29215 9.84264,-3.45528 40.04865,-12.41783 43.5,-12.90706 5.0273,-0.71263 8.5,-1.82464 8.5,-2.72183 0,-0.53876 0.43962,-0.70787 0.97693,-0.37579 0.53731,0.33208 2.89805,0.0865 5.2461,-0.545796 4.59555,-1.237452 5.09294,-1.341442 11.52697,-2.409942 2.3375,-0.388189 4.25,-1.003744 4.25,-1.3679 0,-0.364156 1.2375,-0.687978 2.75,-0.719604 1.5125,-0.03163 10.625,-1.515897 20.25,-3.29838 9.625,-1.782484 19.525,-3.462059 22,-3.732389 2.475,-0.27033 10.8,-1.352709 18.5,-2.405288 18.71732,-2.558631 33.97669,-3.764943 48.76089,-3.854735 4.26849,-0.02593 8.1869,-0.310419 8.70756,-0.632208 1.23649,-0.76419 56.82661,-0.76419 58.0631,0 0.52066,0.321789 4.43907,0.606283 8.70756,0.632208 12.78466,0.07765 28.77989,1.200183 41.62481,2.9212 4.32515,0.579503 8.48765,0.814292 9.25,0.521753 C 889.37626,85.30212 890,85.446223 890,85.914888 c 0,0.468665 3.0375,1.170988 6.75,1.560718 11.13523,1.168952 12.4093,1.365824 30.4182,4.700292 9.53249,1.765004 18.5693,3.234975 20.0818,3.2666 1.5125,0.03163 2.75,0.355448 2.75,0.719604 0,0.364156 1.9125,0.979711 4.25,1.3679 6.43403,1.0685 6.93142,1.17249 11.52697,2.409942 2.34805,0.632266 4.70879,0.877876 5.2461,0.545796 0.53731,-0.33208 0.97693,-0.16297 0.97693,0.37579 0,0.89719 3.4727,2.0092 8.5,2.72183 3.45135,0.48923 33.6574,9.45178 43.5,12.90706 3.575,1.25501 6.8568,2.28648 7.2929,2.29215 0.4361,0.006 2.0111,0.48996 3.5,1.07619 1.4889,0.58623 8.7821,3.30633 16.2071,6.04467 18.6033,6.8609 32.4228,12.5157 47.5,19.43655 78.5082,36.03745 148.9393,85.04087 210.0292,146.13082 28.5138,28.51383 59.2704,64.8202 78.3851,92.5292 18.216,26.4061 32.6789,49.38297 43.1177,68.5 9.8801,18.09396 26.4885,52.10341 31.0099,63.5 0.982,2.475 3.2051,7.875 4.9403,12 1.7351,4.125 4.7163,11.775 6.6247,17 1.9084,5.225 4.5398,12.425 5.8476,16 1.3078,3.575 3.8146,11 5.5707,16.5 1.7561,5.5 4.0792,12.61819 5.1625,15.81821 1.0832,3.20002 2.1746,7.02502 2.4253,8.5 0.2507,1.47498 1.3115,5.38179 2.3573,8.68179 1.0458,3.3 2.4122,8.5875 3.0365,11.75 0.6242,3.1625 1.5796,5.75 2.1231,5.75 0.5435,0 0.7046,0.4588 0.358,1.01955 -0.3465,0.56075 -0.1628,2.47325 0.4084,4.25 0.5712,1.77675 1.2917,4.80545 1.6011,6.73045 1.288,8.01243 1.7578,10 2.3639,10 0.3513,0 0.6681,1.2375 0.704,2.75 0.1132,4.77101 3.6044,22.73584 4.4823,23.06461 0.462,0.17303 0.6027,0.93307 0.3127,1.68896 -0.2901,0.7559 -0.038,3.76433 0.5606,6.6854 1.2361,6.03349 2.122,11.60571 2.1956,13.81103 0.028,0.825 0.9057,8.025 1.9513,16 2.6392,20.12826 3.6874,33.64995 3.7792,48.75 0.028,4.5375 0.4109,8.25 0.8516,8.25 0.4408,0 0.8014,13.05 0.8014,29 0,15.95 -0.3606,29 -0.8014,29 -0.4407,0 -0.824,3.7125 -0.8516,8.25 -0.092,15.10005 -1.14,28.62174 -3.7792,48.75 -1.0456,7.975 -1.9301,15.175 -1.9654,16 -0.035,0.825 -0.5632,4.425 -1.1729,8 -0.6097,3.575 -1.1808,8.075 -1.269,10 -0.088,1.925 -0.4484,3.725 -0.8003,4 -0.7526,0.5882 -4.2,19.25036 -4.2949,23.25 -0.036,1.5125 -0.3527,2.75 -0.704,2.75 -0.6061,0 -1.0759,1.98757 -2.3639,10 -0.3094,1.925 -1.0299,4.9537 -1.6011,6.73045 -0.5712,1.77675 -0.7549,3.68925 -0.4084,4.25 0.3466,0.56075 0.1855,1.01955 -0.358,1.01955 -0.5435,0 -1.4989,2.5875 -2.1231,5.75 -0.6243,3.1625 -1.9907,8.45 -3.0365,11.75 -1.0458,3.3 -2.1066,7.20681 -2.3573,8.68179 -0.2507,1.47498 -1.3421,5.30001 -2.4253,8.50001 -1.0833,3.2 -3.4059,10.3182 -5.1614,15.8182 -1.7556,5.5 -4.2473,12.925 -5.5372,16.5 -5.7506,15.9381 -9.5789,26.0393 -12.5069,33 -1.7352,4.125 -3.9583,9.525 -4.9403,12 -4.5214,11.3966 -21.1298,45.406 -31.0099,63.5 -10.4388,19.117 -24.9017,42.0939 -43.1177,68.5 -19.1147,27.709 -49.8713,64.0154 -78.3851,92.5292 -61.0899,61.09 -131.521,110.0934 -210.0292,146.1308 -15.0772,6.9209 -28.8967,12.5757 -47.5,19.4366 -7.425,2.7383 -14.7182,5.4584 -16.2071,6.0446 -1.4889,0.5863 -2.9483,1.0277 -3.2431,0.981 -0.2948,-0.047 -3.5766,0.9848 -7.2929,2.2922 -10.0133,3.5226 -40.23545,12.5031 -43.7569,13.0022 -5.0273,0.7127 -8.5,1.8247 -8.5,2.7219 0,0.5387 -0.43962,0.7078 -0.97693,0.3758 -0.53731,-0.3321 -2.89805,-0.087 -5.2461,0.5458 -4.59555,1.2374 -5.09294,1.3414 -11.52697,2.4099 -2.3375,0.3882 -4.25,1.0037 -4.25,1.3679 0,0.3642 -1.2375,0.688 -2.75,0.7196 -1.5125,0.032 -10.54931,1.5016 -20.0818,3.2666 -18.0089,3.3345 -19.28297,3.5313 -30.4182,4.7003 -3.7125,0.3897 -6.75,1.092 -6.75,1.5607 0,0.4687 -0.62374,0.6128 -1.38608,0.3202 -0.76235,-0.2925 -4.92485,-0.058 -9.25,0.5218 -12.84492,1.721 -28.84015,2.8435 -41.62481,2.9212 -4.26849,0.026 -8.18623,0.31 -8.70608,0.6313 -1.46998,0.9085 -57.16146,1.1217 -57.71811,0.221 z M 817.5,1232.5845 c 4.95,-1.3671 13.275,-3.6796 18.5,-5.1389 5.225,-1.4594 13.43407,-3.7429 18.24237,-5.0744 22.72801,-6.2939 26.88722,-7.4477 35.75763,-9.9191 5.225,-1.4558 13.2879,-3.7661 17.91755,-5.134 4.62966,-1.368 9.45354,-2.2892 10.71974,-2.0471 1.2662,0.242 2.1026,0.1171 1.85865,-0.2776 -0.65112,-1.0535 14.2958,-5.2811 16.56956,-4.6865 1.06549,0.2786 1.73216,0.1747 1.48148,-0.2309 -0.776,-1.2556 31.82112,-10.4745 34.53105,-9.7658 1.0586,0.2768 1.70939,0.1548 1.44619,-0.271 -0.67567,-1.0933 15.03896,-5.4208 16.97991,-4.676 0.87986,0.3376 1.37285,0.2468 1.09554,-0.2019 -0.69031,-1.117 14.95713,-5.5454 16.92533,-4.7901 0.8684,0.3332 1.3408,0.2206 1.0498,-0.2502 -0.8045,-1.3017 14.794,-5.4426 17.5564,-4.6606 1.4725,0.4169 1.894,0.3386 1.1139,-0.207 -1.6474,-1.1519 14.0319,-5.7448 16.4475,-4.8179 0.9605,0.3686 1.3821,0.3089 0.9369,-0.1326 -0.4452,-0.4416 0.9185,-1.2912 3.0305,-1.888 3.4512,-0.9753 3.8969,-1.4816 4.4021,-5 0.4801,-3.3438 0.6399,-3.5502 1.0951,-1.4149 0.2932,1.375 0.3172,0.069 0.053,-2.9033 -0.6268,-7.0641 4.0434,-56.5695 4.9576,-52.5512 0.3697,1.625 0.4218,0.1141 0.1157,-3.3575 -0.6847,-7.7685 3.8908,-56.8982 4.8987,-52.5996 0.3755,1.6014 0.4275,0.2551 0.1156,-2.9917 -0.7009,-7.2961 3.8934,-57.34389 4.87,-53.05122 0.3697,1.62499 0.4218,0.11412 0.1157,-3.35748 -0.6795,-7.70872 3.8919,-56.9193 4.8862,-52.59961 0.3686,1.60138 0.4199,0.0712 0.1138,-3.40039 -0.6795,-7.70872 3.8919,-56.9193 4.8862,-52.59961 0.3686,1.60138 0.4199,0.0712 0.1138,-3.40039 -0.7062,-8.01174 3.9085,-57.29226 4.887,-52.188 0.369,1.925 0.423,0.40589 0.12,-3.37579 -0.6647,-8.29554 3.8591,-57.46759 4.8792,-53.03582 0.3686,1.60138 0.4199,0.0712 0.1138,-3.40039 -0.6795,-7.70872 3.8919,-56.9193 4.8862,-52.59961 0.3686,1.60138 0.4199,0.0712 0.1138,-3.40039 -0.6795,-7.70872 3.8919,-56.9193 4.8862,-52.59961 0.3686,1.60138 0.4199,0.0712 0.1138,-3.40039 -0.6795,-7.70872 3.8919,-56.9193 4.8862,-52.59961 0.3686,1.60138 0.4199,0.0712 0.1138,-3.40039 -0.6987,-7.92651 3.8881,-56.84474 4.932,-52.59961 0.5362,2.18045 0.6017,1.90714 0.261,-1.08839 -0.2502,-2.2 -0.4599,-5.6875 -0.466,-7.75 L 1110,534 H 800 490 l -0.011,3.75 c -0.006,2.0625 -0.21574,5.55 -0.46598,7.75 -0.34072,2.99553 -0.27518,3.26884 0.26101,1.08839 1.0439,-4.24513 5.63066,44.6731 4.93194,52.59961 -0.30602,3.4716 -0.2548,5.00177 0.11382,3.40039 0.92946,-4.03782 5.57513,44.65513 4.97069,52.09961 -0.25954,3.1966 -0.24952,4.687 0.0223,3.312 0.53272,-2.695 3.39717,23.46323 5.14672,47 0.59281,7.975 2.00977,23.275 3.14882,34 1.21802,11.46868 1.87132,22.7949 1.5862,27.5 -0.29343,4.84232 -0.18539,6.61852 0.27373,4.5 l 0.7585,-3.5 0.13164,4.15597 c 0.0724,2.28578 1.07523,12.86078 2.22852,23.5 1.18837,10.96295 1.8945,22.59351 1.62978,26.84403 -0.2569,4.125 -0.18697,6.45661 0.1554,5.18135 0.97118,-3.61744 5.48402,45.55789 4.80595,52.36929 -0.32574,3.27215 -0.2763,4.91251 0.10987,3.64526 1.07515,-3.52826 5.54375,44.49493 4.88729,52.52289 -0.30498,3.72967 -0.2464,5.47098 0.13016,3.8696 1.01006,-4.29539 5.58624,44.82182 4.90063,52.59961 -0.30602,3.4716 -0.2548,5.00177 0.11382,3.40039 0.99434,-4.31969 5.5657,44.89091 4.88618,52.59961 -0.30602,3.4716 -0.2548,5.0018 0.11382,3.4004 0.99434,-4.3197 5.5657,44.8909 4.88618,52.5996 -0.30602,3.4716 -0.2548,5.0018 0.11382,3.4004 0.99434,-4.3197 5.5657,44.8909 4.88618,52.5996 -0.32502,3.6871 -0.24031,5.0644 0.20368,3.312 l 0.76008,-3 0.41014,3.4724 c 0.38137,3.2288 0.76091,3.5637 5.41014,4.7746 4.71142,1.227 8.06845,2.1541 31.5,8.6986 10.38227,2.8997 22.66778,6.3149 36.25763,10.079 4.8167,1.3341 12.9167,3.5841 18,5 5.0833,1.4159 13.06737,3.6303 17.74237,4.921 4.675,1.2906 12.55,3.4716 17.5,4.8466 4.95,1.375 13.05,3.625 18,5 4.95,1.375 13.05,3.625 18,5 41.66456,11.5735 43.44039,12.1202 42.16456,12.982 -0.64051,0.4326 0.0121,0.5144 1.45021,0.1817 1.54528,-0.3574 6.04451,0.411 11,1.8787 4.61188,1.3659 12.05928,3.5341 16.54979,4.8182 4.70279,1.3449 7.67078,2.6548 7,3.0896 -0.64051,0.4151 0.18544,0.5055 1.83544,0.2008 1.65,-0.3046 4.78479,0.073 6.96619,0.8404 3.31193,1.1642 4.7141,1.1792 8.5,0.09 2.4936,-0.7171 8.58381,-2.4224 13.53381,-3.7894 z m -20.26483,-131.2922 c -1.24566,-0.2394 -2.03254,-0.8111 -1.74862,-1.2705 0.28391,-0.4594 -0.34992,-0.6088 -1.40852,-0.332 -1.0586,0.2769 -5.89672,-0.6207 -10.75138,-1.9946 -4.85466,-1.3739 -12.54137,-3.527 -17.08158,-4.7845 -5.33231,-1.477 -7.81063,-2.5848 -7,-3.129 0.74082,-0.4973 0.15417,-0.5872 -1.43202,-0.2195 -1.62024,0.3757 -6.18572,-0.3703 -11.5,-1.8789 -4.84718,-1.3761 -13.31305,-3.6909 -18.81305,-5.1441 -22.36911,-5.9104 -25.50998,-6.915 -24.25493,-7.7575 0.75077,-0.504 0.21772,-0.6028 -1.32684,-0.2459 -1.49085,0.3445 -6.56144,-0.5069 -12,-2.0149 -5.18003,-1.4363 -12.88425,-3.5688 -17.1205,-4.7389 -4.23625,-1.1701 -7.51237,-2.4347 -7.28026,-2.8103 0.2321,-0.3755 -0.62453,-0.4827 -1.90363,-0.2382 -1.27909,0.2445 -6.0137,-0.7205 -10.52136,-2.1445 -4.50765,-1.4239 -9.07249,-2.589 -10.1441,-2.589 -1.07161,0 -1.94838,-0.1597 -1.94838,-0.3548 0,-2.6908 -2.49757,-30.2073 -3.96152,-43.6452 -1.04856,-9.625 -2.1841,-21.325 -2.52342,-26 -0.33932,-4.675 -1.49402,-16.0765 -2.566,-25.33666 C 630.87708,955.40318 630,945.61033 630,942.90146 v -4.92523 l 38.21034,0.26189 38.21034,0.26188 1.8326,14.5 c 1.03109,8.15819 1.63702,17.78025 1.38542,22 -0.24595,4.125 -0.12229,6.375 0.27482,5 0.52518,-1.81848 0.92312,-0.34567 1.45978,5.40268 1.21231,12.98567 1.34445,13.32486 5.48345,14.07566 2.00379,0.36348 7.24325,1.72386 11.64325,3.02306 4.4,1.2993 11.46879,3.3905 15.70843,4.6471 4.81747,1.4279 7.25522,2.59 6.5,3.0986 -0.67961,0.4576 -0.0642,0.549 1.40634,0.2088 1.54913,-0.3583 6.03215,0.4128 11,1.8921 4.61188,1.3733 11.87648,3.5155 16.14357,4.7603 5.05802,1.4756 7.32037,2.5573 6.5,3.1079 -0.74444,0.4996 -0.15489,0.5886 1.44357,0.2178 1.51953,-0.3524 4.81188,0.074 7.5235,0.9748 4.77849,1.5872 4.93308,1.5685 17.29808,-2.0845 6.86208,-2.0273 13.90151,-3.7171 15.64318,-3.7551 1.74166,-0.038 2.97692,-0.2589 2.745,-0.4909 -0.7938,-0.7938 14.08481,-5.1225 16.30807,-4.7445 1.22085,0.2075 2.02712,0.066 1.79171,-0.3153 -0.23542,-0.3809 2.8157,-1.6438 6.78026,-2.8064 3.96456,-1.1626 11.20664,-3.2944 16.09352,-4.7374 5.30161,-1.5655 9.93982,-2.3797 11.5,-2.0188 1.69425,0.3919 2.14495,0.291 1.28024,-0.2868 -1.03934,-0.6944 -0.90777,-1.00323 0.59481,-1.39616 2.22539,-0.58195 2.57479,-2.71757 4.28745,-26.20592 0.60424,-8.28686 1.95663,-24.06702 3.00532,-35.06702 1.04869,-11 2.20718,-24.3875 2.57443,-29.75 L 895.2952,898 H 760.73737 626.17954 l -0.6274,-8.75 c -0.34507,-4.8125 -1.5391,-17.975 -2.6534,-29.25 -1.11429,-11.275 -2.43276,-25.9 -2.92993,-32.5 -0.49716,-6.6 -1.81265,-21.225 -2.9233,-32.5 -4.1226,-41.85137 -6.17445,-63.84476 -7.13699,-76.5 -0.54382,-7.15 -1.87071,-21.06067 -2.94864,-30.9126 C 605.88195,677.73548 605,668.17298 605,666.3374 V 663 h 194.07946 194.07945 l -0.54465,2.75 c -0.29956,1.5125 -1.03017,9.95 -1.62358,18.75 -0.59342,8.8 -1.72887,23.65 -2.52323,33 -0.79436,9.35 -1.54147,18.6875 -1.66026,20.75 L 986.59123,742 H 837.83324 689.07525 l 0.54497,6.75 c 0.29974,3.7125 1.42948,14.175 2.51054,23.25 1.08106,9.075 2.38098,21.225 2.8887,27 0.50772,5.775 1.2129,12.8625 1.56706,15.75 l 0.64393,5.25 h 140.01398 140.01399 l -0.65307,6.75 c -0.35919,3.7125 -1.05672,13.05 -1.55006,20.75 -0.49333,7.7 -1.79374,24.125 -2.88979,36.5 -1.09605,12.375 -3.04344,35.07872 -4.32753,50.45272 -1.28409,15.374 -2.58516,26.624 -2.89127,25 -0.30611,-1.624 -0.53184,2.44728 -0.50163,9.04728 0.0691,15.08423 -3.64829,56.5448 -4.61747,51.5 -0.36982,-1.925 -0.43309,-0.051 -0.1406,4.1637 0.29249,4.215 -0.0489,14.0481 -0.75876,21.8514 l -1.29055,14.1878 -3.56885,-0.5731 c -1.96286,-0.3152 -3.04479,-0.2456 -2.40428,0.1548 0.65379,0.4086 -2.19707,1.6948 -6.5,2.9326 -21.98447,6.3242 -26.47901,7.4338 -28.24259,6.9726 -1.0586,-0.2768 -1.72059,-0.173 -1.47108,0.2307 0.24951,0.4038 -3.23737,1.7505 -7.74862,2.9928 -8.98848,2.4752 -20.15333,5.5953 -34.52892,9.6496 -5.12966,1.4466 -10.23667,2.3923 -11.34892,2.1014 -1.11224,-0.2908 -1.7365,-0.243 -1.38723,0.1062 0.68857,0.6886 -2.7851,1.8572 -17.4372,5.8663 -28.54252,7.8098 -42.17391,11.3575 -43,11.1914 -0.275,-0.055 -1.51917,-0.2965 -2.76483,-0.5359 z m -59.506,-17.8965 c -0.33229,-0.3323 -1.1948,-0.3678 -1.91667,-0.079 -0.79773,0.3192 -0.56078,0.5562 0.60417,0.6042 1.05416,0.043 1.64479,-0.193 1.3125,-0.5253 z m 164,-10 c -0.33229,-0.3323 -1.1948,-0.3678 -1.91667,-0.079 -0.79773,0.3192 -0.56078,0.5562 0.60417,0.6042 1.05416,0.043 1.64479,-0.193 1.3125,-0.5253 z M 643.24475,1056.5 c -0.26285,-1.375 -0.65044,-2.5 -0.86133,-2.5 -0.21088,0 -0.38342,1.125 -0.38342,2.5 0,1.375 0.3876,2.5 0.86133,2.5 0.47373,0 0.64627,-1.125 0.38342,-2.5 z m 313.43836,-3.6875 c -0.31922,-0.7977 -0.55618,-0.5608 -0.60416,0.6042 -0.0434,1.0541 0.19293,1.6448 0.52522,1.3125 0.33229,-0.3323 0.36781,-1.1948 0.0789,-1.9167 z M 641.68933,1045.25 c -0.25153,-0.9625 -0.45733,-0.175 -0.45733,1.75 0,1.925 0.2058,2.7125 0.45733,1.75 0.25152,-0.9625 0.25152,-2.5375 0,-3.5 z m 316,-5 c -0.25153,-0.9625 -0.45733,-0.175 -0.45733,1.75 0,1.925 0.2058,2.7125 0.45733,1.75 0.25152,-0.9625 0.25152,-2.5375 0,-3.5 z m -316.99634,-3.981 c -0.25354,-0.9729 -0.47766,-0.419 -0.49804,1.231 -0.0204,1.65 0.18706,2.4461 0.46099,1.769 0.27392,-0.677 0.29059,-2.027 0.0371,-3 z m 318.01427,-6.5073 c -0.23919,-1.244 -0.44398,-0.4617 -0.45508,1.7383 -0.0111,2.2 0.18461,3.2177 0.4349,2.2617 0.25029,-0.9561 0.25937,-2.7561 0.0202,-4 z M 637.69299,1003.269 c -0.25354,-0.9729 -0.47766,-0.419 -0.49804,1.231 -0.0204,1.65 0.18706,2.4461 0.46099,1.769 0.27392,-0.677 0.29059,-2.027 0.0371,-3 z m -1.00366,-9.019 c -0.25153,-0.9625 -0.45733,-0.175 -0.45733,1.75 0,1.925 0.2058,2.7125 0.45733,1.75 0.25152,-0.9625 0.25152,-2.5375 0,-3.5 z m 324.97295,-3.5 c -0.27741,-0.6875 -0.50439,-0.125 -0.50439,1.25 0,1.375 0.22698,1.9375 0.50439,1.25 0.27741,-0.6875 0.27741,-1.8125 0,-2.5 z m -325.96929,-5.48097 c -0.25354,-0.97297 -0.47766,-0.41903 -0.49804,1.23097 -0.0204,1.65 0.18706,2.44606 0.46099,1.76903 0.27392,-0.67703 0.29059,-2.02703 0.0371,-3 z M 962.68933,979.25 c -0.25153,-0.9625 -0.45733,-0.175 -0.45733,1.75 0,1.925 0.2058,2.7125 0.45733,1.75 0.25152,-0.9625 0.25152,-2.5375 0,-3.5 z m 1.01793,-9.48834 c -0.23919,-1.24391 -0.44398,-0.46166 -0.45508,1.73834 -0.0111,2.2 0.18461,3.21775 0.4349,2.26166 0.25029,-0.95609 0.25937,-2.75609 0.0202,-4 z m -73.01427,0.50737 c -0.25354,-0.97297 -0.47766,-0.41903 -0.49804,1.23097 -0.0204,1.65 0.18706,2.44606 0.46099,1.76903 0.27392,-0.67703 0.29059,-2.02703 0.0371,-3 z m -182,-1 c -0.25354,-0.97297 -0.47766,-0.41903 -0.49804,1.23097 -0.0204,1.65 0.18706,2.44606 0.46099,1.76903 0.27392,-0.67703 0.29059,-2.02703 0.0371,-3 z m -1,-8 c -0.25354,-0.97297 -0.47766,-0.41903 -0.49804,1.23097 -0.0204,1.65 0.18706,2.44606 0.46099,1.76903 0.27392,-0.67703 0.29059,-2.02703 0.0371,-3 z m -74.00988,0.54347 c -0.31922,-0.79773 -0.55618,-0.56078 -0.60416,0.60417 -0.0434,1.05416 0.19293,1.64479 0.52522,1.3125 0.33229,-0.33229 0.36781,-1.1948 0.0789,-1.91667 z m 258.02415,-3.05084 c -0.23919,-1.24391 -0.44398,-0.46166 -0.45508,1.73834 -0.0111,2.2 0.18461,3.21775 0.4349,2.26166 0.25029,-0.95609 0.25937,-2.75609 0.0202,-4 z m -259.01427,-6.49263 c -0.25354,-0.97297 -0.47766,-0.41903 -0.49804,1.23097 -0.0204,1.65 0.18706,2.44606 0.46099,1.76903 0.27392,-0.67703 0.29059,-2.02703 0.0371,-3 z M 892.68933,948.25 c -0.25153,-0.9625 -0.45733,-0.175 -0.45733,1.75 0,1.925 0.2058,2.7125 0.45733,1.75 0.25152,-0.9625 0.25152,-2.5375 0,-3.5 z m -261,-5 c -0.25153,-0.9625 -0.45733,-0.175 -0.45733,1.75 0,1.925 0.2058,2.7125 0.45733,1.75 0.25152,-0.9625 0.25152,-2.5375 0,-3.5 z m 334.99378,-12.4375 c -0.31922,-0.79773 -0.55618,-0.56078 -0.60416,0.60417 -0.0434,1.05416 0.19293,1.64479 0.52522,1.3125 0.33229,-0.33229 0.36781,-1.1948 0.0789,-1.91667 z m 1.00622,-12.5625 c -0.25153,-0.9625 -0.45733,-0.175 -0.45733,1.75 0,1.925 0.2058,2.7125 0.45733,1.75 0.25152,-0.9625 0.25152,-2.5375 0,-3.5 z m -71.99634,-6.98097 c -0.25354,-0.97297 -0.47766,-0.41903 -0.49804,1.23097 -0.0204,1.65 0.18706,2.44606 0.46099,1.76903 0.27392,-0.67703 0.29059,-2.02703 0.0371,-3 z M 968.70573,907.75 c -0.23835,-1.2375 -0.43337,-0.225 -0.43337,2.25 0,2.475 0.19502,3.4875 0.43337,2.25 0.23836,-1.2375 0.23836,-3.2625 0,-4.5 z m -72.0164,-7.5 c -0.25153,-0.9625 -0.45733,-0.175 -0.45733,1.75 0,1.925 0.2058,2.7125 0.45733,1.75 0.25152,-0.9625 0.25152,-2.5375 0,-3.5 z m 73.00366,-2.98097 c -0.25354,-0.97297 -0.47766,-0.41903 -0.49804,1.23097 -0.0204,1.65 0.18706,2.44606 0.46099,1.76903 0.27392,-0.67703 0.29059,-2.02703 0.0371,-3 z M 627.68933,890.25 c -0.25153,-0.9625 -0.45733,-0.175 -0.45733,1.75 0,1.925 0.2058,2.7125 0.45733,1.75 0.25152,-0.9625 0.25152,-2.5375 0,-3.5 z m -1,-9 c -0.25153,-0.9625 -0.45733,-0.175 -0.45733,1.75 0,1.925 0.2058,2.7125 0.45733,1.75 0.25152,-0.9625 0.25152,-2.5375 0,-3.5 z m -0.99634,-9.98097 c -0.25354,-0.97297 -0.47766,-0.41903 -0.49804,1.23097 -0.0204,1.65 0.18706,2.44606 0.46099,1.76903 0.27392,-0.67703 0.29059,-2.02703 0.0371,-3 z M 972.68933,858.25 c -0.25153,-0.9625 -0.45733,-0.175 -0.45733,1.75 0,1.925 0.2058,2.7125 0.45733,1.75 0.25152,-0.9625 0.25152,-2.5375 0,-3.5 z m 1.01793,-10.48834 c -0.23919,-1.24391 -0.44398,-0.46166 -0.45508,1.73834 -0.0111,2.2 0.18461,3.21775 0.4349,2.26166 0.25029,-0.95609 0.25937,-2.75609 0.0202,-4 z M 623.68311,846.8125 c -0.31922,-0.79773 -0.55618,-0.56078 -0.60416,0.60417 -0.0434,1.05416 0.19293,1.64479 0.52522,1.3125 0.33229,-0.33229 0.36781,-1.1948 0.0789,-1.91667 z m -0.99012,-10.54347 c -0.25354,-0.97297 -0.47766,-0.41903 -0.49804,1.23097 -0.0204,1.65 0.18706,2.44606 0.46099,1.76903 0.27392,-0.67703 0.29059,-2.02703 0.0371,-3 z m 352,0 c -0.25354,-0.97297 -0.47766,-0.41903 -0.49804,1.23097 -0.0204,1.65 0.18706,2.44606 0.46099,1.76903 0.27392,-0.67703 0.29059,-2.02703 0.0371,-3 z M 621.68933,827.25 c -0.25153,-0.9625 -0.45733,-0.175 -0.45733,1.75 0,1.925 0.2058,2.7125 0.45733,1.75 0.25152,-0.9625 0.25152,-2.5375 0,-3.5 z M 906.75,821.25011 c -38.3625,-0.14504 -101.1375,-0.14504 -139.5,0 -38.3625,0.14504 -6.975,0.26371 69.75,0.26371 76.725,0 108.1125,-0.11867 69.75,-0.26371 z m -286.05701,-3.98108 c -0.25354,-0.97297 -0.47766,-0.41903 -0.49804,1.23097 -0.0204,1.65 0.18706,2.44606 0.46099,1.76903 0.27392,-0.67703 0.29059,-2.02703 0.0371,-3 z M 694.66228,805.75 c -0.27741,-0.6875 -0.50439,-0.125 -0.50439,1.25 0,1.375 0.22698,1.9375 0.50439,1.25 0.27741,-0.6875 0.27741,-1.8125 0,-2.5 z m -0.97295,-9.5 c -0.25153,-0.9625 -0.45733,-0.175 -0.45733,1.75 0,1.925 0.2058,2.7125 0.45733,1.75 0.25152,-0.9625 0.25152,-2.5375 0,-3.5 z m -75.00622,-3.4375 c -0.31922,-0.79773 -0.55618,-0.56078 -0.60416,0.60417 -0.0434,1.05416 0.19293,1.64479 0.52522,1.3125 0.33229,-0.33229 0.36781,-1.1948 0.0789,-1.91667 z m 74.00988,-3.54347 c -0.25354,-0.97297 -0.47766,-0.41903 -0.49804,1.23097 -0.0204,1.65 0.18706,2.44606 0.46099,1.76903 0.27392,-0.67703 0.29059,-2.02703 0.0371,-3 z m -75,-7 c -0.25354,-0.97297 -0.47766,-0.41903 -0.49804,1.23097 -0.0204,1.65 0.18706,2.44606 0.46099,1.76903 0.27392,-0.67703 0.29059,-2.02703 0.0371,-3 z m 73.99012,-0.45653 c -0.31922,-0.79773 -0.55618,-0.56078 -0.60416,0.60417 -0.0434,1.05416 0.19293,1.64479 0.52522,1.3125 0.33229,-0.33229 0.36781,-1.1948 0.0789,-1.91667 z m -74.97585,-9.05084 c -0.23919,-1.24391 -0.44398,-0.46166 -0.45508,1.73834 -0.0111,2.2 0.18461,3.21775 0.4349,2.26166 0.25029,-0.95609 0.25937,-2.75609 0.0202,-4 z m -1.01427,-9.49263 c -0.25354,-0.97297 -0.47766,-0.41903 -0.49804,1.23097 -0.0204,1.65 0.18706,2.44606 0.46099,1.76903 0.27392,-0.67703 0.29059,-2.02703 0.0371,-3 z M 689.66228,759.75 c -0.27741,-0.6875 -0.50439,-0.125 -0.50439,1.25 0,1.375 0.22698,1.9375 0.50439,1.25 0.27741,-0.6875 0.27741,-1.8125 0,-2.5 z m -0.96929,-8.48097 c -0.25354,-0.97297 -0.47766,-0.41903 -0.49804,1.23097 -0.0204,1.65 0.18706,2.44606 0.46099,1.76903 0.27392,-0.67703 0.29059,-2.02703 0.0371,-3 z M 687.66228,743.75 c -0.27741,-0.6875 -0.50439,-0.125 -0.50439,1.25 0,1.375 0.22698,1.9375 0.50439,1.25 0.27741,-0.6875 0.27741,-1.8125 0,-2.5 z m -74.96929,-15.48097 c -0.25354,-0.97297 -0.47766,-0.41903 -0.49804,1.23097 -0.0204,1.65 0.18706,2.44606 0.46099,1.76903 0.27392,-0.67703 0.29059,-2.02703 0.0371,-3 z M 611.68933,718.25 c -0.25153,-0.9625 -0.45733,-0.175 -0.45733,1.75 0,1.925 0.2058,2.7125 0.45733,1.75 0.25152,-0.9625 0.25152,-2.5375 0,-3.5 z m -0.99634,-8.98097 c -0.25354,-0.97297 -0.47766,-0.41903 -0.49804,1.23097 -0.0204,1.65 0.18706,2.44606 0.46099,1.76903 0.27392,-0.67703 0.29059,-2.02703 0.0371,-3 z M 987.68933,708.25 c -0.25153,-0.9625 -0.45733,-0.175 -0.45733,1.75 0,1.925 0.2058,2.7125 0.45733,1.75 0.25152,-0.9625 0.25152,-2.5375 0,-3.5 z m 1.01793,-11.48834 c -0.23919,-1.24391 -0.44398,-0.46166 -0.45508,1.73834 -0.0111,2.2 0.18461,3.21775 0.4349,2.26166 0.25029,-0.95609 0.25937,-2.75609 0.0202,-4 z M 989.68933,685.25 c -0.25153,-0.9625 -0.45733,-0.175 -0.45733,1.75 0,1.925 0.2058,2.7125 0.45733,1.75 0.25152,-0.9625 0.25152,-2.5375 0,-3.5 z m -382,-12 c -0.25153,-0.9625 -0.45733,-0.175 -0.45733,1.75 0,1.925 0.2058,2.7125 0.45733,1.75 0.25152,-0.9625 0.25152,-2.5375 0,-3.5 z m -0.99634,-7.98097 c -0.25354,-0.97297 -0.47766,-0.41903 -0.49804,1.23097 -0.0204,1.65 0.18706,2.44606 0.46099,1.76903 0.27392,-0.67703 0.29059,-2.02703 0.0371,-3 z m 167.03618,566.12677 c -0.33229,-0.3323 -1.1948,-0.3678 -1.91667,-0.079 -0.79773,0.3192 -0.56078,0.5562 0.60417,0.6042 1.05416,0.043 1.64479,-0.193 1.3125,-0.5253 z m -54,-15 c -0.33229,-0.3323 -1.1948,-0.3678 -1.91667,-0.079 -0.79773,0.3192 -0.56078,0.5562 0.60417,0.6042 1.05416,0.043 1.64479,-0.193 1.3125,-0.5253 z M 543.68933,1151.25 c -0.25153,-0.9625 -0.45733,-0.175 -0.45733,1.75 0,1.925 0.2058,2.7125 0.45733,1.75 0.25152,-0.9625 0.25152,-2.5375 0,-3.5 z m 512.99997,-1 c -0.2515,-0.9625 -0.4573,-0.175 -0.4573,1.75 0,1.925 0.2058,2.7125 0.4573,1.75 0.2516,-0.9625 0.2516,-2.5375 0,-3.5 z m -513.99631,-7.981 c -0.25354,-0.9729 -0.47766,-0.419 -0.49804,1.231 -0.0204,1.65 0.18706,2.4461 0.46099,1.769 0.27392,-0.677 0.29059,-2.027 0.0371,-3 z m 515.00001,-1 c -0.2536,-0.9729 -0.4777,-0.419 -0.4981,1.231 -0.02,1.65 0.1871,2.4461 0.461,1.769 0.274,-0.677 0.2906,-2.027 0.037,-3 z m -516.00989,-8.4565 c -0.31922,-0.7977 -0.55618,-0.5608 -0.60416,0.6042 -0.0434,1.0541 0.19293,1.6448 0.52522,1.3125 0.33229,-0.3323 0.36781,-1.1948 0.0789,-1.9167 z m 516.97919,-1.0625 c -0.2774,-0.6875 -0.5044,-0.125 -0.5044,1.25 0,1.375 0.227,1.9375 0.5044,1.25 0.2774,-0.6875 0.2774,-1.8125 0,-2.5 z m -519.95504,-36.9883 c -0.23919,-1.244 -0.44398,-0.4617 -0.45508,1.7383 -0.0111,2.2 0.18461,3.2177 0.4349,2.2617 0.25029,-0.9561 0.25937,-2.7561 0.0202,-4 z m 522.98204,-0.5117 c -0.2515,-0.9625 -0.4573,-0.175 -0.4573,1.75 0,1.925 0.2058,2.7125 0.4573,1.75 0.2516,-0.9625 0.2516,-2.5375 0,-3.5 z m -523.99631,-7.981 c -0.25354,-0.9729 -0.47766,-0.419 -0.49804,1.231 -0.0204,1.65 0.18706,2.4461 0.46099,1.769 0.27392,-0.677 0.29059,-2.027 0.0371,-3 z m 525.00001,-1 c -0.2536,-0.9729 -0.4777,-0.419 -0.4981,1.231 -0.02,1.65 0.1871,2.4461 0.461,1.769 0.274,-0.677 0.2906,-2.027 0.037,-3 z m -526.00989,-8.4565 c -0.31922,-0.7977 -0.55618,-0.5608 -0.60416,0.6042 -0.0434,1.0541 0.19293,1.6448 0.52522,1.3125 0.33229,-0.3323 0.36781,-1.1948 0.0789,-1.9167 z m 526.99999,-1 c -0.3192,-0.7977 -0.5562,-0.5608 -0.6042,0.6042 -0.043,1.0541 0.193,1.6448 0.5253,1.3125 0.3323,-0.3323 0.3678,-1.1948 0.079,-1.9167 z M 533.68933,1039.25 c -0.25153,-0.9625 -0.45733,-0.175 -0.45733,1.75 0,1.925 0.2058,2.7125 0.45733,1.75 0.25152,-0.9625 0.25152,-2.5375 0,-3.5 z m 532.99997,-1 c -0.2515,-0.9625 -0.4573,-0.175 -0.4573,1.75 0,1.925 0.2058,2.7125 0.4573,1.75 0.2516,-0.9625 0.2516,-2.5375 0,-3.5 z m -533.99631,-7.981 c -0.25354,-0.9729 -0.47766,-0.419 -0.49804,1.231 -0.0204,1.65 0.18706,2.4461 0.46099,1.769 0.27392,-0.677 0.29059,-2.027 0.0371,-3 z m 535.00001,-1 c -0.2536,-0.9729 -0.4777,-0.419 -0.4981,1.231 -0.02,1.65 0.1871,2.4461 0.461,1.769 0.274,-0.677 0.2906,-2.027 0.037,-3 z M 528.70726,982.76166 c -0.23919,-1.24391 -0.44398,-0.46166 -0.45508,1.73834 -0.0111,2.2 0.18461,3.21775 0.4349,2.26166 0.25029,-0.95609 0.25937,-2.75609 0.0202,-4 z M 1071.6893,982.25 c -0.2515,-0.9625 -0.4573,-0.175 -0.4573,1.75 0,1.925 0.2058,2.7125 0.4573,1.75 0.2516,-0.9625 0.2516,-2.5375 0,-3.5 z m -543.99997,-9 c -0.25153,-0.9625 -0.45733,-0.175 -0.45733,1.75 0,1.925 0.2058,2.7125 0.45733,1.75 0.25152,-0.9625 0.25152,-2.5375 0,-3.5 z m 544.99997,0 c -0.2515,-0.9625 -0.4573,-0.175 -0.4573,1.75 0,1.925 0.2058,2.7125 0.4573,1.75 0.2516,-0.9625 0.2516,-2.5375 0,-3.5 z M 523.70726,926.76166 c -0.23919,-1.24391 -0.44398,-0.46166 -0.45508,1.73834 -0.0111,2.2 0.18461,3.21775 0.4349,2.26166 0.25029,-0.95609 0.25937,-2.75609 0.0202,-4 z M 1076.6893,926.25 c -0.2515,-0.9625 -0.4573,-0.175 -0.4573,1.75 0,1.925 0.2058,2.7125 0.4573,1.75 0.2516,-0.9625 0.2516,-2.5375 0,-3.5 z m -553.99997,-9 c -0.25153,-0.9625 -0.45733,-0.175 -0.45733,1.75 0,1.925 0.2058,2.7125 0.45733,1.75 0.25152,-0.9625 0.25152,-2.5375 0,-3.5 z m 555.00367,0.019 c -0.2536,-0.97297 -0.4777,-0.41903 -0.4981,1.23097 -0.02,1.65 0.1871,2.44606 0.461,1.76903 0.274,-0.67703 0.2906,-2.02703 0.037,-3 z M 518.68933,871.25 c -0.25153,-0.9625 -0.45733,-0.175 -0.45733,1.75 0,1.925 0.2058,2.7125 0.45733,1.75 0.25152,-0.9625 0.25152,-2.5375 0,-3.5 z m 562.99997,-1 c -0.2515,-0.9625 -0.4573,-0.175 -0.4573,1.75 0,1.925 0.2058,2.7125 0.4573,1.75 0.2516,-0.9625 0.2516,-2.5375 0,-3.5 z m -563.99997,-9 c -0.25153,-0.9625 -0.45733,-0.175 -0.45733,1.75 0,1.925 0.2058,2.7125 0.45733,1.75 0.25152,-0.9625 0.25152,-2.5375 0,-3.5 z m 565.00367,0.019 c -0.2536,-0.97297 -0.4777,-0.41903 -0.4981,1.23097 -0.02,1.65 0.1871,2.44606 0.461,1.76903 0.274,-0.67703 0.2906,-2.02703 0.037,-3 z m -566.00989,-8.4565 c -0.31922,-0.79773 -0.55618,-0.56078 -0.60416,0.60417 -0.0434,1.05416 0.19293,1.64479 0.52522,1.3125 0.33229,-0.33229 0.36781,-1.1948 0.0789,-1.91667 z m 566.99999,-1 c -0.3192,-0.79773 -0.5562,-0.56078 -0.6042,0.60417 -0.043,1.05416 0.193,1.64479 0.5253,1.3125 0.3323,-0.33229 0.3678,-1.1948 0.079,-1.91667 z M 513.70726,814.76166 c -0.23919,-1.24391 -0.44398,-0.46166 -0.45508,1.73834 -0.0111,2.2 0.18461,3.21775 0.4349,2.26166 0.25029,-0.95609 0.25937,-2.75609 0.0202,-4 z M 1086.6893,814.25 c -0.2515,-0.9625 -0.4573,-0.175 -0.4573,1.75 0,1.925 0.2058,2.7125 0.4573,1.75 0.2516,-0.9625 0.2516,-2.5375 0,-3.5 z m -573.99631,-8.98097 c -0.25354,-0.97297 -0.47766,-0.41903 -0.49804,1.23097 -0.0204,1.65 0.18706,2.44606 0.46099,1.76903 0.27392,-0.67703 0.29059,-2.02703 0.0371,-3 z m 575.00001,0 c -0.2536,-0.97297 -0.4777,-0.41903 -0.4981,1.23097 -0.02,1.65 0.1871,2.44606 0.461,1.76903 0.274,-0.67703 0.2906,-2.02703 0.037,-3 z M 511.66228,795.75 c -0.27741,-0.6875 -0.50439,-0.125 -0.50439,1.25 0,1.375 0.22698,1.9375 0.50439,1.25 0.27741,-0.6875 0.27741,-1.8125 0,-2.5 z m 577.02082,0.0625 c -0.3192,-0.79773 -0.5562,-0.56078 -0.6042,0.60417 -0.043,1.05416 0.193,1.64479 0.5253,1.3125 0.3323,-0.33229 0.3678,-1.1948 0.079,-1.91667 z M 508.68933,758.25 c -0.25153,-0.9625 -0.45733,-0.175 -0.45733,1.75 0,1.925 0.2058,2.7125 0.45733,1.75 0.25152,-0.9625 0.25152,-2.5375 0,-3.5 z m 582.99997,0 c -0.2515,-0.9625 -0.4573,-0.175 -0.4573,1.75 0,1.925 0.2058,2.7125 0.4573,1.75 0.2516,-0.9625 0.2516,-2.5375 0,-3.5 z m -583.99997,-9 c -0.25153,-0.9625 -0.45733,-0.175 -0.45733,1.75 0,1.925 0.2058,2.7125 0.45733,1.75 0.25152,-0.9625 0.25152,-2.5375 0,-3.5 z m 584.99997,-1 c -0.2515,-0.9625 -0.4573,-0.175 -0.4573,1.75 0,1.925 0.2058,2.7125 0.4573,1.75 0.2516,-0.9625 0.2516,-2.5375 0,-3.5 z M 504.69299,714.26903 c -0.25354,-0.97297 -0.47766,-0.41903 -0.49804,1.23097 -0.0204,1.65 0.18706,2.44606 0.46099,1.76903 0.27392,-0.67703 0.29059,-2.02703 0.0371,-3 z M 503.68933,702.25 c -0.25153,-0.9625 -0.45733,-0.175 -0.45733,1.75 0,1.925 0.2058,2.7125 0.45733,1.75 0.25152,-0.9625 0.25152,-2.5375 0,-3.5 z m 592.99997,0 c -0.2515,-0.9625 -0.4573,-0.175 -0.4573,1.75 0,1.925 0.2058,2.7125 0.4573,1.75 0.2516,-0.9625 0.2516,-2.5375 0,-3.5 z m -593.99997,-9 c -0.25153,-0.9625 -0.45733,-0.175 -0.45733,1.75 0,1.925 0.2058,2.7125 0.45733,1.75 0.25152,-0.9625 0.25152,-2.5375 0,-3.5 z m 595.00367,0.019 c -0.2536,-0.97297 -0.4777,-0.41903 -0.4981,1.23097 -0.02,1.65 0.1871,2.44606 0.461,1.76903 0.274,-0.67703 0.2906,-2.02703 0.037,-3 z m 0.9901,-9.45653 c -0.3192,-0.79773 -0.5562,-0.56078 -0.6042,0.60417 -0.043,1.05416 0.193,1.64479 0.5253,1.3125 0.3323,-0.33229 0.3678,-1.1948 0.079,-1.91667 z M 498.70726,646.76166 c -0.23919,-1.24391 -0.44398,-0.46166 -0.45508,1.73834 -0.0111,2.2 0.18461,3.21775 0.4349,2.26166 0.25029,-0.95609 0.25937,-2.75609 0.0202,-4 z M 1101.6893,646.25 c -0.2515,-0.9625 -0.4573,-0.175 -0.4573,1.75 0,1.925 0.2058,2.7125 0.4573,1.75 0.2516,-0.9625 0.2516,-2.5375 0,-3.5 z m -603.99997,-9 c -0.25153,-0.9625 -0.45733,-0.175 -0.45733,1.75 0,1.925 0.2058,2.7125 0.45733,1.75 0.25152,-0.9625 0.25152,-2.5375 0,-3.5 z m 605.00367,0.019 c -0.2536,-0.97297 -0.4777,-0.41903 -0.4981,1.23097 -0.02,1.65 0.1871,2.44606 0.461,1.76903 0.274,-0.67703 0.2906,-2.02703 0.037,-3 z m -606.00989,-9.4565 c -0.31922,-0.79773 -0.55618,-0.56078 -0.60416,0.60417 -0.0434,1.05416 0.19293,1.64479 0.52522,1.3125 0.33229,-0.33229 0.36781,-1.1948 0.0789,-1.91667 z m 606.99999,0 c -0.3192,-0.79773 -0.5562,-0.56078 -0.6042,0.60417 -0.043,1.05416 0.193,1.64479 0.5253,1.3125 0.3323,-0.33229 0.3678,-1.1948 0.079,-1.91667 z M 493.68933,590.25 c -0.25153,-0.9625 -0.45733,-0.175 -0.45733,1.75 0,1.925 0.2058,2.7125 0.45733,1.75 0.25152,-0.9625 0.25152,-2.5375 0,-3.5 z m 612.99997,0 c -0.2515,-0.9625 -0.4573,-0.175 -0.4573,1.75 0,1.925 0.2058,2.7125 0.4573,1.75 0.2516,-0.9625 0.2516,-2.5375 0,-3.5 z m -613.99631,-8.98097 c -0.25354,-0.97297 -0.47766,-0.41903 -0.49804,1.23097 -0.0204,1.65 0.18706,2.44606 0.46099,1.76903 0.27392,-0.67703 0.29059,-2.02703 0.0371,-3 z m 615.00001,0 c -0.2536,-0.97297 -0.4777,-0.41903 -0.4981,1.23097 -0.02,1.65 0.1871,2.44606 0.461,1.76903 0.274,-0.67703 0.2906,-2.02703 0.037,-3 z M 491.68311,571.8125 c -0.31922,-0.79773 -0.55618,-0.56078 -0.60416,0.60417 -0.0434,1.05416 0.19293,1.64479 0.52522,1.3125 0.33229,-0.33229 0.36781,-1.1948 0.0789,-1.91667 z m 616.99999,0 c -0.3192,-0.79773 -0.5562,-0.56078 -0.6042,0.60417 -0.043,1.05416 0.193,1.64479 0.5253,1.3125 0.3323,-0.33229 0.3678,-1.1948 0.079,-1.91667 z M 488.66228,535.75 c -0.27741,-0.6875 -0.50439,-0.125 -0.50439,1.25 0,1.375 0.22698,1.9375 0.50439,1.25 0.27741,-0.6875 0.27741,-1.8125 0,-2.5 z m 623.00002,0 c -0.2774,-0.6875 -0.5044,-0.125 -0.5044,1.25 0,1.375 0.227,1.9375 0.5044,1.25 0.2774,-0.6875 0.2774,-1.8125 0,-2.5 z M 955.25,532.25002 c -85.3875,-0.14097 -225.1125,-0.14097 -310.5,0 -85.3875,0.14097 -15.525,0.25631 155.25,0.25631 170.775,0 240.6375,-0.11534 155.25,-0.25631 z M 588,461.5 V 442 h 17.5 17.5 v 19.5 19.5 h 20.50793 20.50793 L 663.75793,421.75 663.5,362.5 643.25,362.22929 623,361.95859 V 381.47929 401 H 605.5 588 v -19.52071 -19.5207 l -20.25,0.2707 L 547.5,362.5 547.24207,421.75 546.98414,481 H 567.49207 588 Z M 712.74897,423.31622 C 712.58741,412.4173 712.45499,421.05 712.45471,442.5 c -2.9e-4,21.45 0.1319,30.3673 0.29375,19.81622 0.16184,-10.55108 0.16207,-28.10108 5.1e-4,-39 z M 755,442 v -39 h 17 17 V 382.5 362 H 734.5 680 v 20.5 20.5 h 17 17 v 39 39 h 20.5 20.5 z m 90.23443,10.97487 0.26557,-28.02514 4.2847,6.56448 c 2.35659,3.61046 4.01064,7.00792 3.67567,7.54991 -0.33497,0.54199 -0.1539,0.86178 0.40238,0.71066 1.47455,-0.40061 11.32779,15.0918 10.50754,16.52118 -0.38002,0.66222 -0.33405,0.8818 0.10214,0.48795 0.43619,-0.39385 1.63334,0.35213 2.66032,1.65773 2.15593,2.74081 2.41729,3.99293 0.61725,2.95705 -0.6875,-0.39564 -1.025,-0.45969 -0.75,-0.14235 0.275,0.31735 0.95,0.68234 1.5,0.81109 0.55,0.12876 1.5625,0.95376 2.25,1.83334 1.47667,1.88923 1.21154,2.17885 8.57331,-9.36491 2.65282,-4.1598 5.23516,-7.30874 5.73854,-6.99763 0.50371,0.3113 0.61916,-0.20594 0.25676,-1.15034 -0.48212,-1.25638 -0.30375,-1.49674 0.66596,-0.89743 0.86938,0.53731 1.08529,0.43159 0.62838,-0.30771 -0.91699,-1.48371 2.30342,-6.35247 3.65094,-5.51966 0.61165,0.37802 0.74666,0.163 0.32552,-0.51842 -0.72334,-1.17039 5.33281,-11.55578 6.22082,-10.66778 0.26112,0.26113 -0.15185,1.24703 -0.91773,2.1909 -0.88407,1.08954 -0.94252,1.4459 -0.16007,0.97601 0.95983,-0.57641 1.30014,4.63429 1.53859,23.55804 l 0.30617,24.29816 0.11998,-26.82524 c 0.066,-14.75388 0.38611,-27.09138 0.7114,-27.41666 C 898.73386,424.93281 899,437.34167 899,452.83333 V 481 h 20 20 V 421.5 362 h -21.03138 c -17.73615,0 -21.12123,0.23412 -21.60479,1.49426 -0.31537,0.82184 -0.97109,1.24847 -1.45716,0.94806 -0.48607,-0.30041 -0.58744,0.226 -0.22528,1.16979 0.42773,1.11464 0.27272,1.47756 -0.44235,1.03562 -0.60547,-0.37419 -1.42647,-0.15348 -1.82445,0.49047 -0.45192,0.73122 -0.29014,0.90292 0.4309,0.45729 1.64734,-1.01811 1.42808,0.18015 -0.59549,3.25443 -0.9625,1.46226 -2.28473,3.55673 -2.93828,4.65437 -0.65355,1.09764 -2.8585,4.79308 -4.89988,8.2121 -2.04138,3.41901 -4.06306,5.99917 -4.49262,5.73368 -0.42956,-0.26548 -1.10665,0.0442 -1.50463,0.68813 -0.47801,0.77343 -0.28773,0.90143 0.56063,0.37711 1.5811,-0.97717 1.36606,-0.46387 -2.82136,6.73471 -1.83964,3.1625 -3.71574,5.52076 -4.16911,5.24056 C 871.18345,401.99534 866,393.18221 866,392.31503 c 0,-0.23819 0.5625,-0.10936 1.25,0.28628 0.6875,0.39564 0.95,0.38469 0.58333,-0.0243 -0.36666,-0.40901 -0.89658,-0.59366 -1.17758,-0.41032 -1.12128,0.73154 -6.77743,-8.4072 -6.17501,-9.97708 0.34373,-0.89574 0.30722,-1.31089 -0.0811,-0.92254 -1.01343,1.01343 -5.54235,-5.45269 -4.9324,-7.04219 0.28043,-0.7308 0.16296,-1.11433 -0.26105,-0.85228 -0.71385,0.44119 -2.23728,-1.55976 -6.58019,-8.64276 l -1.69852,-2.77018 -20.71372,0.27018 L 805.5,362.5 805.24207,421.75 804.98414,481 h 19.99236 19.99235 z m 3.03284,-21.33125 c 0.74133,0.44519 0.64792,-0.0338 -0.2343,-1.20166 -0.80687,-1.06808 -1.59437,-2.12946 -1.75,-2.35863 -0.15563,-0.22916 -0.17855,11.69584 -0.0509,26.5 l 0.23204,26.91667 0.28523,-25.29834 c 0.22239,-19.7239 0.55686,-25.13522 1.51796,-24.55804 z M 940.74942,392.25 c -0.15418,-16.3625 -0.28033,-2.975 -0.28033,29.75 0,32.725 0.12615,46.1125 0.28033,29.75 0.15419,-16.3625 0.15419,-43.1375 0,-59.5 z M 1054,461 v -20 h -28 -28 V 401.5 362 h -20 -20 v 59.5 59.5 h 48 48 z M 614.79748,443.25755 c -4.23638,-0.18698 -11.43638,-0.18802 -16,-0.002 -4.56361,0.18571 -1.09748,0.33869 7.70252,0.33996 8.8,0.001 12.53387,-0.15068 8.29748,-0.33766 z M 790.74486,372.19681 C 790.56541,366.86356 790.4193,371.5 790.42019,382.5 c 8.8e-4,11 0.14771,15.36356 0.32628,9.69681 0.17857,-5.66676 0.17784,-14.66676 -0.002,-20 z m 82.65213,27.96986 c 0.28327,-0.45834 -0.12038,-0.83334 -0.89699,-0.83334 -0.77661,0 -1.18026,0.375 -0.89699,0.83334 C 871.88627,400.625 872.28992,401 872.5,401 c 0.21008,0 0.61373,-0.375 0.89699,-0.83333 z"
       id="path863" />
    <path
       style="fill:#ffffff;stroke-width:2.75944"
       d="m 684.34139,1204.4514 c -61.46655,-17.2549 -117.34523,-33.0551 -124.17485,-35.1117 l -12.41748,-3.7391 -3.11106,-31.602 c -1.71108,-17.381 -4.53605,-47.7446 -6.27771,-67.4746 -1.74166,-19.73 -4.39977,-48.2902 -5.90691,-63.4672 -1.50714,-15.17689 -6.5021,-71.67644 -11.09992,-125.55453 -4.59781,-53.87809 -13.26765,-152.38721 -19.2663,-218.90916 -5.99866,-66.52196 -10.90664,-121.46933 -10.90664,-122.10527 0,-0.63595 139.19235,-1.15627 309.31634,-1.15627 h 309.31634 l -1.6504,13.10735 c -1.705,13.54213 -6.602,67.56652 -13.9443,153.83884 -3.9882,46.86039 -5.8311,67.05229 -12.4667,136.59233 -1.5206,15.93578 -5.8655,65.60572 -9.6554,110.37765 -3.7899,44.77193 -8.0882,93.20016 -9.5519,107.61816 -1.4636,14.4181 -4.2291,44.0891 -6.1455,65.9356 -3.6645,41.7744 -5.6771,47.2015 -17.5037,47.2015 -3.5962,0 -7.3061,1.2418 -8.244,2.7595 -0.938,1.5177 -4.4261,2.8 -7.7514,2.8497 -3.3252,0.05 -23.43033,5.0671 -44.67803,11.1499 -21.2477,6.0828 -45.46179,12.7936 -53.8091,14.913 -8.34731,2.1194 -39.93094,10.7611 -70.18586,19.2039 -30.2549,8.4428 -55.71074,15.2593 -56.56854,15.1478 -0.85778,-0.1116 -51.85043,-14.3205 -113.31698,-31.5754 z m 151.76926,-110.6709 c 20.48885,-5.5073 54.63694,-14.8699 75.88463,-20.8058 21.2477,-5.9359 40.4948,-11.1722 42.77134,-11.6363 3.13172,-0.6384 4.58815,-6.8263 5.98393,-25.4235 1.01462,-13.5189 3.16687,-40.10159 4.78277,-59.07275 1.61593,-18.97116 4.79558,-57.46536 7.06591,-85.54268 2.27033,-28.07731 4.65648,-55.70621 5.30254,-61.39756 l 1.17467,-10.3479 H 838.60751 c -95.35729,0 -140.46891,-0.92113 -140.46891,-2.86819 0,-4.9601 -5.50485,-56.03885 -7.05129,-65.42798 l -1.47711,-8.96818 H 838.42709 987.244 l 1.62241,-14.48707 c 0.89235,-7.96789 2.43733,-25.97324 3.43333,-40.0119 l 1.81091,-25.52483 H 798.88245 603.65428 l 1.2798,15.86679 c 0.7039,8.72673 5.50643,62.12192 10.67229,118.65597 l 9.39247,102.78918 h 134.7286 134.72859 l -1.58387,14.48706 c -0.87113,7.96789 -2.86786,29.37072 -4.43715,47.56184 -1.56932,18.19112 -3.73987,33.91392 -4.82345,34.93957 -1.08358,1.02566 -20.3293,7.08413 -42.7683,13.46333 l -40.79817,11.5985 -22.66898,-6.2984 c -12.46792,-3.4641 -29.76985,-8.5739 -38.44871,-11.3552 -8.67886,-2.7812 -17.54692,-5.05682 -19.7068,-5.05682 -4.87678,0 -6.35185,-6.10195 -8.74238,-36.16471 l -1.88833,-23.74723 -39.0288,-1.54592 c -21.46584,-0.85024 -39.53225,-1.04324 -40.14758,-0.42887 -1.10146,1.09974 6.83624,95.34325 9.64093,114.46585 1.39833,9.534 1.95441,9.9355 19.91343,14.3785 27.07548,6.6984 98.47192,25.8512 119.19452,31.9751 9.865,2.9152 18.55724,5.4451 19.31609,5.6219 0.75884,0.1769 18.14332,-4.1846 38.63217,-9.6918 z"
       id="path1382" />
    <path
       style="fill:#ffffff;stroke-width:2.75944"
       d="m 549.12878,422.19449 v -57.94827 h 19.31609 19.31608 v 19.31609 19.31609 h 17.93637 17.93637 v -19.31609 -19.31609 h 19.31609 19.31608 v 57.94827 57.94826 h -19.31608 -19.31609 v -19.31609 -19.31608 h -17.93637 -17.93637 v 19.31608 19.31609 h -19.31608 -19.31609 z"
       id="path1421" />
    <path
       style="fill:#ffffff;stroke-width:2.75944"
       d="M 714.69524,441.51058 V 402.8784 H 698.1386 681.58195 v -19.31609 -19.31609 h 52.42938 52.42938 v 19.31609 19.31609 h -16.55664 -16.55665 v 38.63218 38.63217 h -19.31609 -19.31609 z"
       id="path1460" />
    <path
       style="fill:#ffffff;stroke-width:2.75944"
       d="m 805.7568,422.07841 v -58.06433 l 21.01336,0.80593 21.01335,0.80594 10.83489,17.93636 c 5.95919,9.865 11.93196,17.93637 13.27282,17.93637 2.63914,0 13.9975,-15.8428 20.82735,-29.05028 4.13009,-7.9867 4.78334,-8.20218 24.86646,-8.20218 h 20.62494 v 57.94827 57.94826 h -19.21955 -19.21955 l -0.7864,-28.28427 -0.78639,-28.28427 -12.37444,18.62623 c -6.80594,10.24442 -13.12484,18.62622 -14.042,18.62622 -0.91715,0 -7.14526,-8.3818 -13.84025,-18.62622 l -12.17269,-18.62623 -0.7864,28.28427 -0.78639,28.28427 H 824.97635 805.7568 Z"
       id="path1499" />
    <path
       style="fill:#ffffff;stroke-width:2.75944"
       d="m 960.2855,422.19449 v -57.94827 h 17.93637 17.93637 v 38.63218 38.63218 h 27.59436 27.5945 v 19.31608 19.31609 h -45.5308 -45.5308 z"
       id="path1538" />
    <path
       style="fill:#ffffff;stroke-width:1.37972"
       d="m 751.25784,1516.9449 c -93.06632,-6.5365 -184.55253,-31.098 -266.60727,-71.5768 -33.1182,-16.3377 -50.1387,-26.0865 -79.70259,-45.6512 C 348.23371,1362.1845 298.04207,1317.998 254.50483,1267.2733 173.38317,1172.7595 118.0504,1058.4766 94.512985,936.83025 90.393715,915.541 84.20954,866.12156 82.84391,843.57948 74.446082,704.95886 107.1695,563.93859 175.42327,444.61239 188.35556,422.00322 217.35232,378.64935 232.40514,359.4172 278.90685,300.00455 338.76735,244.28862 400.67877,202.79437 472.17655,154.87513 557.63865,117.93939 640.19034,99.280198 723.22381,80.512107 819.94009,76.472331 900.26766,88.416937 c 48.58918,7.225147 86.02495,16.132283 129.69374,30.858163 148.168,49.96487 277.4921,148.54916 364.7948,278.08442 21.8863,32.47389 32.4024,50.5311 49.2192,84.51474 30.2368,61.10281 52.8562,129.9749 64.6831,196.94825 4.7607,26.9596 10.4162,92.45252 10.4104,120.55884 -0.014,36.56891 -6.1574,98.57976 -13.7683,138.82862 -4.4668,23.62188 -13.5939,58.37195 -22.1056,84.16293 -30.7565,93.1949 -77.3424,175.4674 -140.5334,248.1876 -18.2729,21.0284 -60.2721,62.5481 -79.5274,78.6194 -86.4801,72.1797 -187.4304,123.6654 -291.12107,148.4746 -8.34731,1.9973 -17.34999,4.1817 -20.00595,4.8544 -4.99902,1.2662 -38.93978,7.0719 -55.87868,9.5582 -17.26714,2.5345 -35.3731,4.1665 -62.08743,5.5961 -32.01029,1.7132 -50.44131,1.5533 -82.78323,-0.7183 z m 103.44567,-294.0095 c 28.85452,-8.0707 55.87756,-15.4878 60.05121,-16.4825 4.17366,-0.9947 12.8659,-3.3085 19.31609,-5.1419 35.12869,-9.9846 49.46955,-13.8276 53.8091,-14.4196 2.65597,-0.3623 5.48977,-1.1863 6.29737,-1.8312 0.80759,-0.6448 5.15371,-2.1027 9.65802,-3.2397 4.5044,-1.137 11.4736,-2.9906 15.4872,-4.119 4.0136,-1.1284 8.2045,-1.7035 9.3131,-1.2781 1.1086,0.4254 2.0157,0.1669 2.0157,-0.5746 0,-1.2118 5.5167,-3.0359 15.1769,-5.0181 6.8122,-1.3979 8.2904,-3.7489 10.3477,-16.4574 1.081,-6.6778 1.5815,-14.0608 1.1124,-16.4068 -0.6035,-3.0173 -0.3913,-3.9798 0.7253,-3.2897 1.1354,0.7016 1.3501,-0.6907 0.7651,-4.9595 -0.4474,-3.2642 0.1581,-12.4744 1.3456,-20.4671 1.1875,-7.9926 1.799,-15.9088 1.359,-17.5914 -0.4872,-1.863 -0.1731,-3.0593 0.8031,-3.0593 1.0746,0 1.3143,-1.54 0.7269,-4.671 -0.5446,-2.9029 -0.2818,-5.0385 0.6943,-5.6417 1.1002,-0.6799 1.1394,-1.4904 0.131,-2.7055 -1.4368,-1.7312 0.2535,-21.4156 2.0948,-24.3948 0.4578,-0.7407 1.0789,-9.4855 1.3804,-19.4329 0.3014,-9.9475 1.4712,-25.1254 2.5994,-33.72861 1.1283,-8.60325 1.6922,-16.57846 1.2531,-17.72269 -0.4391,-1.14423 -0.2663,-2.08073 0.3841,-2.08111 0.6503,-3.8e-4 1.2619,-5.74347 1.359,-12.76241 0.097,-7.01896 1.1711,-18.34961 2.3865,-25.17923 1.2155,-6.82961 1.858,-13.74437 1.4278,-15.36614 -0.4301,-1.62176 -0.1528,-3.33754 0.6163,-3.81285 0.8105,-0.50091 1.1007,-3.90148 0.6905,-8.08911 -0.3893,-3.97371 0.026,-12.1919 0.9238,-18.26267 0.8973,-6.07077 1.5751,-13.02088 1.5061,-15.44469 -0.069,-2.42381 0.403,-4.73352 1.0489,-5.13267 0.6458,-0.39916 0.9514,-5.4386 0.6791,-11.19875 -0.2998,-6.34027 0.018,-10.15552 0.8067,-9.66842 0.7658,0.47334 1.005,-1.05429 0.5808,-3.7104 -0.3966,-2.48326 0.1977,-11.07037 1.3207,-19.08246 1.1229,-8.01209 1.7222,-16.23868 1.3318,-18.2813 -0.4507,-2.35761 -0.1074,-3.71385 0.9402,-3.71385 1.1207,0 1.3545,-1.34626 0.7287,-4.19567 -0.579,-2.6359 -0.268,-4.98314 0.8364,-6.31389 1.2723,-1.53294 1.3306,-2.38237 0.2112,-3.07419 -1.5985,-0.98797 -0.6587,-12.03098 2.3494,-27.60364 0.7845,-4.06133 1.036,-8.93975 0.5588,-10.84093 -0.561,-2.23529 -0.1963,-3.87157 1.0323,-4.63085 1.4409,-0.89054 1.5133,-1.56068 0.2999,-2.77414 -0.88,-0.87999 -1.3544,-3.54454 -1.0542,-5.92126 3.1724,-25.11884 5.1924,-45.51258 5.0403,-50.88688 -0.102,-3.60452 0.3348,-6.55368 0.9707,-6.55368 0.636,0 0.8695,-2.63871 0.5191,-5.86381 -0.3505,-3.2251 0.3066,-11.76212 1.4601,-18.97116 1.1535,-7.20904 1.737,-14.90702 1.2965,-17.10663 -0.6078,-3.03533 -0.374,-3.73551 0.9699,-2.90493 1.3786,0.85205 1.5575,-0.0422 0.8078,-4.03868 -0.5898,-3.14357 -0.3705,-5.84706 0.5658,-6.97523 1.0825,-1.30426 1.0966,-2.10936 0.048,-2.75725 -1.6307,-1.00779 -0.9588,-9.1114 2.0607,-24.8554 1.0187,-5.31192 1.6096,-13.51693 1.3131,-18.23335 -0.2965,-4.71641 0.017,-8.9187 0.6956,-9.33839 0.6791,-0.4197 0.9275,-2.76956 0.552,-5.2219 -0.3755,-2.45236 0.2431,-10.95195 1.3746,-18.888 1.1315,-7.93606 1.7534,-14.92089 1.382,-15.52186 -0.7803,-1.26257 -618.67787,-1.51609 -621.96373,-0.25519 -2.17374,0.83414 -3.11689,4.6814 -1.14763,4.6814 0.56914,0 1.09394,2.01785 1.16623,4.4841 0.0723,2.46625 0.84818,9.41456 1.72422,15.44068 1.25868,8.65829 1.23111,11.1907 -0.13149,12.07256 -1.35513,0.87707 -1.3161,1.37896 0.18232,2.34459 1.3588,0.87565 1.63813,2.65942 0.97227,6.20874 -0.63766,3.39904 -0.42529,4.98011 0.66889,4.98011 0.97627,0 1.29032,1.19632 0.80314,3.0593 -0.44002,1.68262 0.16739,9.57113 1.34979,17.53005 1.18241,7.95891 1.7658,16.87234 1.29643,19.80763 -0.6177,3.86294 -0.41196,5.06406 0.74498,4.34903 1.17091,-0.72368 1.34641,0.6924 0.65621,5.29499 -0.6142,4.09572 -0.40609,6.61419 0.5978,7.23462 0.84699,0.52347 1.23483,1.74695 0.86189,2.71885 -0.37295,0.97189 0.41613,11.61918 1.75353,23.66063 1.3374,12.04144 2.24396,25.46355 2.01459,29.82692 -0.23687,4.50593 0.1627,7.93339 0.92486,7.93339 0.73805,0 1.26818,2.63872 1.17809,5.86381 -0.0901,3.2251 0.559,11.14125 1.44248,17.59144 0.88346,6.45019 1.21378,14.43264 0.73403,17.73876 -0.66023,4.54988 -0.46232,5.75779 0.81411,4.9689 1.23872,-0.76556 1.47766,0.0195 0.90009,2.95705 -0.43248,2.1996 0.13604,10.51846 1.26325,18.48635 1.12726,7.96788 1.68687,16.86104 1.24359,19.76255 -0.48457,3.17174 -0.28489,4.95346 0.5007,4.46792 0.76165,-0.47072 1.28298,2.22055 1.24984,6.45214 -0.0592,7.56713 0.61755,15.34727 2.85201,32.78453 0.7293,5.69135 1.13851,14.22837 0.90937,18.97116 -0.24936,5.16101 0.14287,8.62325 0.97691,8.62325 0.80643,0 1.05149,1.71024 0.58165,4.05939 -0.44652,2.23265 0.13052,9.21749 1.28232,15.52186 1.15181,6.30435 2.25514,17.07763 2.45186,23.94059 0.19673,6.86297 0.82046,13.22693 1.38609,14.14214 0.56563,0.91521 0.68893,2.21332 0.27399,2.88469 -0.41493,0.67138 0.184,8.37636 1.33098,17.12219 1.14696,8.74583 2.3108,23.56316 2.58629,32.92741 0.27548,9.36423 1.26622,19.81982 2.20162,23.23463 0.93541,3.41482 1.78184,12.57102 1.88094,20.34702 0.0991,7.7761 0.71824,14.14 1.37584,14.1422 0.65759,0 0.87642,1.6737 0.48625,3.7147 -0.39016,2.041 0.20204,9.6467 1.31601,16.9016 1.11398,7.2549 1.74753,15.8294 1.40789,19.0545 -0.3547,3.3681 -0.0357,5.8638 0.74932,5.8638 0.75176,0 1.08074,1.9492 0.73107,4.3317 -0.34966,2.3824 0.47485,13.1356 1.83226,23.896 1.35741,10.7605 2.45211,21.6943 2.43268,24.2975 -0.0195,2.6033 0.26644,10.8638 0.63525,18.3567 0.53743,10.9181 1.1876,14.1406 3.274,16.227 1.76172,1.7617 27.56571,9.5115 79.81419,23.971 42.46594,11.7522 81.24648,22.5718 86.17898,24.0435 4.9325,1.4717 15.48736,4.6168 23.45525,6.9891 7.96788,2.3723 17.86545,4.9219 21.99458,5.6658 4.12914,0.7439 9.40657,2.1647 11.72762,3.1574 6.90741,2.9541 23.98636,7.3075 29.71157,7.5735 1.87876,0.087 27.02417,-6.4446 55.87868,-14.5153 z m 41.08006,-691.39791 c -52.55011,-0.20018 -138.54119,-0.20018 -191.0913,0 -52.55011,0.20019 -9.55456,0.36399 95.54565,0.36399 105.10021,0 148.09575,-0.1638 95.54565,-0.36399 z m -306.64301,-68.98618 -9e-5,-18.97115 h 16.55618 16.55619 l 5.6e-4,18.97115 5.7e-4,18.97116 h 21.38567 21.38566 v -30.82124 c 0,-16.95169 -0.40916,-43.95972 -0.90926,-60.01785 l -0.90928,-29.1966 h -20.47639 -20.4764 v 19.31609 19.31609 h -16.55665 -16.55665 v -19.31609 -19.31609 h -21.38566 -21.38567 v 60.01785 60.01784 h 21.38567 21.38566 z m 166.9463,-19.66101 v -38.63218 h 16.55665 16.55664 v -4.82902 c 0,-2.65596 0.62088,-4.82902 1.37973,-4.82902 0.8176,0 1.37972,-5.05898 1.37972,-12.41749 0,-7.3585 -0.56212,-12.41748 -1.37972,-12.41748 -0.75885,0 -1.37973,-1.86263 -1.37973,-4.13916 v -4.13917 h -55.22476 -55.22475 l 0.38086,21.04074 0.38087,21.04074 16.85004,0.38698 16.85004,0.38699 -0.8333,22.3784 c -0.4583,12.30813 -0.37386,29.67368 0.18766,38.59013 l 1.02093,16.21171 h 21.24956 21.24956 z m 91.06156,14.25473 c 0.37942,-13.02816 1.15551,-24.15216 1.72465,-24.71998 0.56913,-0.56784 1.03479,-0.39406 1.03479,0.38617 0,0.78022 3.10437,5.99815 6.8986,11.5954 3.79423,5.59725 6.8986,10.89424 6.8986,11.77109 0,0.87685 0.97067,1.96676 2.15703,2.42202 1.18637,0.45525 1.78986,1.42183 1.34108,2.14796 -0.70181,1.13556 3.19181,4.21814 5.32797,4.21814 0.40103,0 3.391,-3.8094 6.64437,-8.46532 8.58991,-12.29306 10.43602,-15.15052 13.12568,-20.31623 2.35483,-4.5226 2.43655,-4.55648 3.32811,-1.37973 0.5027,1.7912 0.97589,12.05341 1.05153,22.8049 0.0756,10.7515 0.51438,20.53026 0.975,21.73059 0.71125,1.85351 3.9025,2.18243 21.17364,2.18243 h 20.33617 l 0.90188,-16.77326 c 1.15185,-21.42175 1.14869,-63.02111 -0.007,-85.67099 l -0.89718,-17.59144 h -20.9589 c -19.37034,0 -21.15273,0.21418 -23.51608,2.82563 -1.40644,1.5541 -2.67083,3.60006 -2.80975,4.54659 -0.30623,2.0865 -9.94665,17.59943 -12.13826,19.53233 -0.86041,0.75885 -2.19668,3.24235 -2.9695,5.51889 -0.89896,2.64811 -2.34675,4.13916 -4.01907,4.13916 -2.51569,0 -4.36567,-2.38354 -10.36834,-13.35866 -1.52825,-2.79419 -3.40836,-5.46955 -4.17806,-5.94525 -0.76927,-0.47568 -1.39902,-2.07 -1.39902,-3.54291 0,-1.47291 -0.58115,-2.67801 -1.29144,-2.67801 -0.71028,0 -2.68724,-2.4835 -4.39323,-5.51888 l -3.10178,-5.51889 h -21.82146 -21.82147 v 60.05379 60.05377 l 21.04074,-0.38086 21.04074,-0.38087 z m 206.95808,3.68163 v -20.6958 h -27.5944 -27.59442 v -39.32204 -39.32204 h -20.69581 -20.69581 v 60.01785 60.01784 h 48.29024 48.2902 z"
       id="path1577" />
    <path
       style="fill:#ffffff;stroke-width:1.37972"
       d=""
       id="path1616" />
    <path
       style="fill:#ffffff;stroke-width:1.37972"
       d=""
       id="path1655" />
    <path
       style="fill:#ffffff;stroke-width:1.37972"
       d=""
       id="path1694" />
    <path
       style="fill:#ffffff;stroke-width:1.37972"
       d=""
       id="path1733" />
    <path
       style="fill:#ffffff;stroke-width:1.37972"
       d="M 751.2342,1517.049 C 691.01822,1512.5649 633.13188,1501.2801 577.52696,1483.1854 470.38323,1448.319 372.66042,1388.274 292.45977,1308.0281 213.75804,1229.2821 157.73631,1139.9027 120.57264,1033.7923 104.3963,987.60527 95.875267,951.34533 88.355859,896.69872 66.782904,739.91924 97.84893,579.7995 176.40262,442.8903 c 12.27511,-21.39398 41.43931,-64.86885 55.9094,-83.34376 97.26279,-124.18181 232.33534,-213.83373 383.04335,-254.23803 83.0785,-22.273055 179.20906,-29.07161 269.73536,-19.07625 27.69697,3.058129 75.30919,12.429774 104.85876,20.63964 57.79841,16.05832 117.52311,40.9011 167.63601,69.72893 93.4755,53.77245 177.4935,131.96959 237.1917,220.75869 21.9817,32.69337 32.4714,50.71299 49.1982,84.51474 30.9678,62.58005 51.3443,124.64795 64.657,196.94825 4.6807,25.42015 10.4529,92.58794 10.4199,121.2487 -0.026,22.90434 -3.2448,67.45645 -6.9056,95.59692 -17.1926,132.15417 -73.7527,260.53987 -160.671,364.70657 -18.8555,22.5972 -59.4728,63.7812 -82.5698,83.7216 -115.3215,99.5612 -261.8425,160.8728 -411.40958,172.1539 -32.44891,2.4475 -79.38254,2.8003 -106.26212,0.7988 z m 107.41285,-295.1556 c 31.23864,-8.6438 58.34972,-16.0574 60.24684,-16.4747 1.89711,-0.4173 8.72673,-2.2622 15.17692,-4.0999 34.15082,-9.7294 49.46,-13.8341 53.8091,-14.4274 2.65597,-0.3623 5.48977,-1.1863 6.29737,-1.8312 0.80759,-0.6448 5.15371,-2.1027 9.65802,-3.2397 4.5044,-1.137 11.4736,-2.9906 15.4872,-4.119 4.0136,-1.1284 8.2045,-1.7035 9.3131,-1.2781 1.1086,0.4254 2.0157,0.1669 2.0157,-0.5746 0,-1.2118 5.5167,-3.0359 15.1769,-5.0181 6.7763,-1.3905 8.2947,-3.7655 10.2444,-16.0241 1.0243,-6.4395 1.5513,-13.726 1.1712,-16.1922 -0.3863,-2.5065 -0.088,-4.4841 0.6758,-4.4841 0.7851,0 1.104,-2.4957 0.7493,-5.8638 -0.3396,-3.2251 0.2939,-11.7996 1.4079,-19.0545 1.114,-7.2548 1.7062,-14.8606 1.316,-16.9016 -0.3902,-2.041 -0.1713,-3.7112 0.4862,-3.7117 0.6576,-4e-4 1.2882,-6.3757 1.4013,-14.1672 0.1132,-7.7916 0.9314,-16.8619 1.8185,-20.1563 0.8871,-3.2943 1.8798,-13.8379 2.2061,-23.4301 0.3263,-9.5922 1.5182,-24.4968 2.6487,-33.12125 1.1306,-8.62448 1.7161,-16.23019 1.3011,-16.90158 -0.4149,-0.67137 -0.3189,-1.92529 0.2133,-2.78648 0.5323,-0.8612 1.1349,-6.91472 1.3392,-13.45228 0.2043,-6.53756 1.3018,-17.47434 2.4389,-24.30396 1.1371,-6.82961 1.7405,-14.12488 1.3408,-16.21171 -0.4338,-2.26565 -0.1198,-3.79423 0.7795,-3.79423 0.9473,0 1.1898,-1.5816 0.6536,-4.26255 -0.9695,-4.84746 2.2195,-41.05489 3.6963,-41.96761 0.532,-0.32878 0.7444,-5.31063 0.472,-11.07078 -0.2862,-6.05313 0.033,-10.14637 0.7572,-9.69902 0.7055,0.43603 0.9694,-1.48537 0.6044,-4.40026 -0.3563,-2.84586 0.2519,-11.46314 1.3516,-19.14953 1.0997,-7.68638 1.6884,-15.60253 1.3082,-17.59144 -0.4343,-2.27142 -0.078,-3.61618 0.9589,-3.61618 1.1207,0 1.3545,-1.34626 0.7286,-4.19567 -0.543,-2.47252 -0.2772,-4.97199 0.6473,-6.08591 1.0484,-1.26328 1.1004,-2.1797 0.1566,-2.76296 -1.5428,-0.9535 -0.9854,-7.54325 2.0873,-24.67811 1.067,-5.94995 1.5625,-12.32196 1.1012,-14.16004 -0.4613,-1.83808 -0.1184,-4.20994 0.762,-5.2708 1.0136,-1.22131 1.1034,-2.23621 0.2449,-2.76681 -0.7457,-0.46088 -1.1002,-2.84443 -0.7878,-5.29677 3.1021,-24.34814 5.215,-45.64262 5.0626,-51.02438 -0.1019,-3.60452 0.3349,-6.55368 0.9708,-6.55368 0.6359,0 0.8783,-2.63871 0.5387,-5.86381 -0.3396,-3.2251 0.2939,-11.7996 1.4079,-19.05446 1.114,-7.25486 1.6885,-14.95286 1.2768,-17.10665 -0.4174,-2.18371 -0.1948,-3.57374 0.5032,-3.14233 0.7141,0.44132 1.3215,-5.24924 1.414,-13.2472 0.089,-7.71148 1.1247,-18.67743 2.301,-24.36878 1.1763,-5.69135 1.8961,-14.20679 1.5996,-18.92321 -0.2965,-4.71641 0.017,-8.9187 0.6956,-9.33839 0.6791,-0.4197 0.9275,-2.76956 0.552,-5.2219 -0.3755,-2.45236 0.2431,-10.95195 1.3746,-18.888 1.1315,-7.93606 1.7534,-14.92089 1.382,-15.52186 -0.7803,-1.26257 -618.67786,-1.51609 -621.96372,-0.25519 -2.17375,0.83414 -3.1169,4.6814 -1.14764,4.6814 0.56914,0 1.09394,2.01785 1.16623,4.4841 0.0723,2.46625 0.84818,9.41456 1.72422,15.44068 1.162,7.99321 1.1799,11.21179 0.0662,11.90009 -1.09037,0.67389 -1.04778,1.23943 0.14905,1.9791 1.10641,0.68381 1.38526,2.85161 0.82086,6.38121 -0.5684,3.55457 -0.33314,5.3456 0.70214,5.3456 0.91694,0 1.23604,1.22717 0.77627,2.9853 -0.42936,1.64191 0.16898,9.24762 1.32966,16.90158 1.16067,7.65395 1.75748,16.587 1.32625,19.85123 -0.55492,4.20053 -0.33132,5.65514 0.76514,4.97749 1.10837,-0.685 1.2811,0.83036 0.60702,5.3254 -0.6142,4.09572 -0.40609,6.61419 0.59781,7.23462 0.84698,0.52347 1.23482,1.74695 0.86188,2.71885 -0.37295,0.97189 0.41614,11.61918 1.75353,23.66063 1.3374,12.04144 2.24396,25.46355 2.0146,29.82692 -0.22938,4.36336 0.0589,7.93339 0.64062,7.93339 1.55662,0 4.60105,37.14531 3.49484,42.64094 -0.7382,3.66745 -0.55179,4.45515 0.84937,3.58918 1.37282,-0.84846 1.61015,-0.1686 1.00883,2.88984 -0.43249,2.1996 0.13604,10.51846 1.26324,18.48635 1.12726,7.96788 1.68687,16.86104 1.2436,19.76255 -0.58124,3.80444 -0.3605,5.00016 0.79164,4.28812 1.13076,-0.69886 1.40338,0.33603 0.93294,3.54137 -0.36557,2.49082 0.41007,13.90997 1.72364,25.37589 1.31358,11.46591 2.2605,24.26193 2.10428,28.43558 -0.15622,4.17366 0.29975,8.36125 1.01328,9.30576 0.71353,0.94452 0.95445,3.02843 0.5354,4.63091 -0.41906,1.60249 0.17593,8.59064 1.3222,15.52921 1.73573,10.50665 2.79121,22.57514 3.51664,40.21001 0.0625,1.51769 0.95763,9.53156 1.98933,17.8086 1.03172,8.27704 2.17177,23.17803 2.53346,33.1133 0.36169,9.93527 1.31821,20.23719 2.1256,22.89315 0.8074,2.65592 1.71281,11.03772 2.01204,18.62622 0.29924,7.5885 0.9637,14.8837 1.47659,16.2117 0.5129,1.328 0.59415,3.2964 0.18057,4.3741 -0.4136,1.0778 0.18456,8.0627 1.32923,15.5219 1.14468,7.4592 1.80335,16.201 1.46371,19.4261 -0.3547,3.3681 -0.0357,5.8638 0.74932,5.8638 0.75768,0 1.07263,1.9984 0.7067,4.4841 -0.36308,2.4662 0.20802,10.6928 1.26911,18.2813 2.05982,14.731 2.99849,26.2668 3.92231,48.2033 0.45616,10.8318 1.09452,14.2106 3.0404,16.0929 2.59146,2.5066 11.25419,5.0637 104.56235,30.8647 31.87154,8.813 60.74219,16.908 64.157,17.9889 17.00369,5.3825 35.96361,10.6512 42.69039,11.8631 4.12915,0.7439 9.40658,2.1647 11.72763,3.1574 6.75783,2.8901 23.93918,7.2987 29.51594,7.5735 1.77116,0.087 28.77919,-6.9135 60.01785,-15.5573 z m -4.2551,-690.35559 c -29.78472,-0.20759 -78.52335,-0.20759 -108.30806,0 -29.78472,0.20758 -5.41541,0.37742 54.15403,0.37742 59.56943,0 83.93875,-0.16984 54.15403,-0.37742 z m -265.25139,-68.9865 -9e-5,-18.97115 h 16.55618 16.55619 l 5.6e-4,18.97115 5.7e-4,18.97116 h 21.38567 21.38566 v -26.68113 c 0,-14.67463 -0.40974,-41.68266 -0.91054,-60.01784 l -0.91053,-33.33672 h -20.47514 -20.47512 v 19.31609 19.31609 h -16.55665 -16.55665 v -19.31609 -19.31609 h -21.38566 -21.38567 v 60.01785 60.01784 h 21.38567 21.38566 z m 166.9463,-19.66101 v -38.63218 h 16.55665 16.55664 v -4.82902 c 0,-2.65596 0.62088,-4.82902 1.37973,-4.82902 0.81084,0 1.37972,-4.80189 1.37972,-11.6462 0,-6.4054 -0.62088,-12.02992 -1.37972,-12.49891 -0.75885,-0.469 -1.37973,-2.6787 -1.37973,-4.91046 v -4.05773 h -55.22476 -55.22475 l 0.38086,21.04074 0.38087,21.04074 16.89122,0.38732 16.89121,0.38731 -0.87454,22.37808 c -0.48098,12.30793 -0.41507,29.67334 0.14648,38.58979 l 1.021,16.21171 h 21.24956 21.24956 z m 91.06156,14.25473 c 0.37942,-13.02816 1.15551,-24.15216 1.72465,-24.71998 0.56913,-0.56784 1.03479,-0.39406 1.03479,0.38617 0,0.78022 3.10437,5.99815 6.8986,11.5954 3.79423,5.59725 6.8986,10.89424 6.8986,11.77109 0,0.87685 0.97067,1.96676 2.15703,2.42202 1.18637,0.45525 1.78986,1.42183 1.34108,2.14796 -0.44877,0.72613 0.51563,2.03288 2.1431,2.90388 2.30556,1.2339 3.34457,1.173 4.70471,-0.27571 3.19292,-3.40084 20.00635,-29.01288 20.10492,-30.62597 0.0533,-0.87296 0.63056,-0.34547 1.28274,1.17222 0.65218,1.5177 1.23788,11.45168 1.30158,22.07553 0.16841,28.08882 -2.05172,25.52483 22.10166,25.52483 h 20.32198 l 0.89717,-17.59144 c 1.15327,-22.61228 1.15531,-59.60688 0.004,-83.59987 l -0.90327,-18.84438 h -20.95793 c -19.36934,0 -21.15176,0.21418 -23.5151,2.82563 -1.40643,1.5541 -2.6788,3.65441 -2.82746,4.66737 -0.32519,2.21559 -9.81358,17.46189 -12.08061,19.41155 -0.88238,0.75885 -2.23661,3.24235 -3.00944,5.51889 -0.89895,2.64811 -2.34675,4.13916 -4.01907,4.13916 -2.51568,0 -4.36567,-2.38354 -10.36834,-13.35866 -1.52824,-2.79419 -3.40836,-5.46955 -4.17805,-5.94525 -0.76969,-0.47568 -1.39944,-2.07 -1.39944,-3.54291 0,-1.47291 -0.60233,-2.67801 -1.33852,-2.67801 -0.73619,0 -2.75403,-2.47871 -4.48409,-5.50826 l -3.14557,-5.50826 -21.7306,-0.0106 -21.7306,-0.0106 v 60.05379 60.05377 l 21.04074,-0.38086 21.04074,-0.38087 z m 206.95808,3.68163 v -20.6958 h -27.5944 -27.59442 v -39.32204 -39.32204 h -20.69581 -20.69581 v 60.01785 60.01784 h 48.29024 48.2902 z"
       id="path1772" />
    <path
       style="fill:#ffffff;stroke-width:0.0609756"
       d="m 499.30276,640.83842 c -0.56789,-8.40724 -1.93006,-22.8104 -2.87327,-30.3811 -0.69349,-5.56628 -1.1644,-8.14024 -1.48929,-8.14024 -0.0313,0 -0.11989,0.19893 -0.19676,0.44207 l -0.13978,0.44207 -0.0191,-0.76219 c -0.0176,-0.7028 0.0244,-1.54215 0.17267,-3.44513 0.29922,-3.84118 -0.5628,-17.60017 -2.10494,-33.59756 -0.11638,-1.20731 -0.225,-2.27058 -0.24138,-2.3628 l -0.0298,-0.16768 h 0.54726 c 0.30099,0 0.54725,0.0221 0.54725,0.0491 0,0.13456 3.44821,38.64712 5.6416,63.01026 0.75383,8.37319 1.3706,15.29468 1.3706,15.3811 v 0.15711 h -0.57142 -0.57141 z"
       id="path1811" />
    <ellipse
       style="fill:#ffffff"
       id="path2011"
       cx="831.21948"
       cy="793.17072"
       rx="400"
       ry="514.14636" />
    <ellipse
       style="fill:#ffffff"
       id="path2013"
       cx="615.42719"
       cy="399.77438"
       rx="231.03693"
       ry="81.725609" />
    <path
       style="fill:#000000;stroke-width:2.7671"
       d="m 309.02895,1328.0977 c -25.09382,-23.3121 -70.29822,-75.3774 -88.71082,-102.1757 -10.64289,-15.4899 -10.79005,-16.04 -7.36866,-27.546 16.68061,-56.0973 90.1609,-121.7375 202.17803,-180.6071 15.64254,-8.2207 29.10254,-16.0096 29.91113,-17.3087 1.7372,-2.79106 -26.23409,-24.11496 -82.28749,-62.73238 C 237.17413,851.21317 181.75752,792.14076 161.60631,723.31374 132.99054,625.57557 240.92229,477.76417 418.2516,371.84077 c 46.71923,-27.90661 119.59467,-63.50835 171.1516,-83.61248 96.9392,-37.80048 161.72843,-51.33522 246.17755,-51.42747 117.37858,-0.1282 201.39125,33.08207 244.03605,96.46773 24.7732,36.82161 28.9678,106.27803 9.7947,162.17947 -27.3991,79.88438 -97.27699,156.95382 -180.99733,199.6245 -72.7416,37.075 -162.47797,56.68612 -245.42203,53.63488 -46.05215,-1.69409 -68.00896,-6.26992 -96.08781,-20.02484 -36.72745,-17.99153 -66.98856,-53.01137 -64.48824,-74.6294 1.43424,-12.40072 9.07672,-11.17948 25.96873,4.1496 49.96299,45.34015 135.04848,50.61436 247.07342,15.31545 32.32886,-10.18679 90.62806,-39.21454 119.32167,-59.4114 C 1005.258,536.34323 1051.5929,418.6135 992.12425,366.76899 958.937,337.83643 891.81623,323.80595 817.15616,330.19479 c -87.33547,7.47353 -161.90795,30.48404 -263.32755,81.2539 -84.89825,42.49939 -155.33523,90.35255 -203.29892,138.11635 -31.14931,31.0195 -50.03419,57.37774 -63.80442,89.05384 -24.78736,57.01925 -17.27198,108.00061 23.40113,158.74382 19.07725,23.8005 37.07853,39.69308 109.88345,97.01139 30.54634,24.04877 62.64907,50.44243 71.33942,58.65263 l 15.80062,14.9278 71.67302,-39.00786 c 69.57081,-37.86386 72.27099,-39.65169 92.06158,-60.95629 56.84039,-61.18878 117.67992,-84.6636 148.89464,-57.45075 12.66206,11.03879 16.54022,23.63851 16.66643,54.14757 0.10062,24.28133 0.36453,25.37611 5.65925,23.45981 16.14599,-5.8437 38.80237,2.22444 42.02279,14.96478 1.03949,4.11247 -5.57215,35.08066 -17.14647,80.31216 -12.96798,50.67776 -19.23866,80.70746 -20.1229,96.36656 -0.70647,12.5112 -0.5113,22.7477 0.43367,22.7477 6.54165,0 132.99335,-278.36473 144.69444,-318.52341 3.96769,-13.61733 9.36586,-26.90523 11.99596,-29.5287 9.1981,-9.17526 59.0784,-13.8876 77.9303,-7.36233 12.6816,4.38958 13.6195,12.5515 4.6743,40.6837 -9.116,28.66893 -12.0443,64.56417 -7.2436,88.79263 4.0136,20.25653 16.535,50.03613 20.4884,48.72759 3.9641,-1.312 37.1859,-59.09217 61.7956,-107.47624 12.9798,-25.5191 23.8662,-51.60048 29.2264,-70.0199 4.6982,-16.14416 9.9673,-31.61895 11.7092,-34.38849 5.6871,-9.04205 18.5783,-12.09004 51.1341,-12.09004 28.4035,0 31.6921,0.53593 37.2819,6.07522 l 6.1305,6.07521 -9.0165,31.78336 c -14.671,51.71435 -11.9815,88.49645 9.7525,133.37673 5.3657,11.07984 11.5335,20.82262 13.7065,21.65056 2.1729,0.8278 18.0248,-2.92993 35.2264,-8.35089 17.2018,-5.42084 39.3986,-11.27544 49.3261,-13.01018 33.1951,-5.8005 99.5022,-4.10107 110.8136,2.84015 3.2048,1.96664 3.3253,6.42595 0.7165,26.49254 -1.7252,13.27015 -3.6525,24.63999 -4.2833,25.26606 -0.6305,0.62609 -9.0863,-0.38193 -18.7907,-2.24017 -29.986,-5.74188 -85.7371,-4.46532 -116.6016,2.66976 -37.8789,8.75686 -37.4233,8.25596 -31.5114,34.64058 10.287,45.91106 0.085,78.21246 -34.5834,109.49146 -20.2813,18.2989 -58.0009,38.375 -84.667,45.0636 -57.7745,14.4915 -71.8833,-39.5382 -28.9201,-110.7483 5.102,-8.4562 20.8911,-27.54928 35.0869,-42.4288 l 25.8108,-27.05362 -8.6137,-16.94256 c -9.6397,-18.96141 -23.258,-58.61099 -26.2518,-76.43213 -1.0813,-6.4372 -2.9543,-12.31046 -4.1621,-13.05168 -1.208,-0.74121 -11.609,15.81968 -23.1136,36.80203 -11.5044,20.98229 -30.5417,52.86797 -42.3044,70.85715 l -21.3869,32.70744 5.9225,18.01967 c 23.701,72.1113 3.1919,124.7487 -61.0463,156.6782 -29.9725,14.8976 -53.455,20.8168 -83.57176,21.0654 -30.79262,0.2536 -39.35007,-4.7429 -40.62158,-23.7229 -0.73548,-10.9777 0.61773,-14.2903 12.2767,-30.0526 7.20678,-9.7431 25.08227,-31.9839 39.72329,-49.4236 61.76615,-73.57359 58.27825,-66.8181 46.49735,-90.05745 -12.0204,-23.71191 -25.3979,-61.14595 -29.8115,-83.42077 -1.8632,-9.40307 -4.2883,-16.09349 -5.3891,-14.86762 -1.1007,1.22599 -10.45053,22.08144 -20.77732,46.34562 -39.09959,91.86982 -106.36203,219.78632 -128.32393,244.04042 -14.06936,15.5377 -26.6011,22.0378 -42.48769,22.0378 -25.82275,0 -38.3447,-21.1447 -40.88977,-69.047 l -1.5852,-29.8356 -14.80136,31.9379 c -18.76771,40.4959 -34.71098,67.1749 -45.56048,76.2397 -17.00012,14.2034 -46.25287,16.1042 -65.55419,4.2599 -19.50867,-11.9718 -42.05627,-61.9629 -48.18458,-106.8317 -3.81539,-27.9352 -0.0671,-72.5595 9.25558,-110.19507 l 6.2375,-25.17978 -19.56596,10.95949 c -10.76124,6.02788 -28.06164,15.59813 -38.44534,21.26743 -15.35518,8.38353 -18.62381,11.33723 -17.51005,15.82233 0.75313,3.0329 4.08502,15.4407 7.40413,27.5729 8.16064,29.8285 8.93929,83.7329 1.6928,117.1847 -21.76655,100.4796 -103.78192,176.9276 -205.08739,191.1655 -9.67461,1.3595 -11.50967,0.2429 -34.1096,-20.7517 z m 54.93952,-61.3593 c 61.46761,-21.5384 111.19453,-82.0435 121.54241,-147.8861 3.14483,-20.0102 2.00297,-54.1833 -2.3222,-69.4979 l -2.17138,-7.6882 -30.86929,19.0291 c -107.45851,66.2415 -153.71202,118.94 -153.71202,175.1306 0,18.9077 5.69354,30.129 17.73941,34.9617 10.69564,4.291 30.61401,2.6711 49.79307,-4.0492 z m 671.95243,-156.1353 c 15.4088,-13.6365 27.8137,-33.3433 31.111,-49.4242 2.2032,-10.746 2.7485,-11.1518 -16.6685,12.4077 -7.4992,9.099 -22.1234,26.0139 -32.4981,37.5887 -10.3749,11.5748 -18.86334,21.8904 -18.86334,22.9238 0,3.6022 22.42614,-10.6703 36.91894,-23.496 z m -338.03469,7.7894 c 20.88721,-24.5689 85.39357,-194.73582 89.2124,-235.34116 l 1.65898,-17.63981 h -9.57716 c -12.33191,0 -31.62112,12.10389 -44.86606,28.15318 -14.54543,17.62512 -35.62147,54.99807 -45.81174,81.23521 -19.4328,50.03418 -23.01011,122.33708 -7.24099,146.34988 5.40037,8.2236 7.59922,7.8589 16.62457,-2.7573 z m 528.24129,-40.3888 c 14.8038,-7.5198 31.0279,-24.1669 37.3217,-38.2947 5.6075,-12.5864 8.1736,-47.9651 3.7862,-52.19701 -7.141,-6.88741 -51.3103,61.34171 -56.168,86.76381 -2.0211,10.5781 0.3961,11.1767 15.0601,3.7279 z"
       id="path1285" />
  </g>
</svg>
