<svg width="87" height="26" viewBox="0 0 87 26" fill="none" xmlns="http://www.w3.org/2000/svg">
<path d="M23.832 18.1934C23.832 19.1784 23.6439 20.1081 23.2676 20.9824C22.9023 21.8457 22.3932 22.6038 21.7402 23.2568C21.0983 23.8988 20.3402 24.4079 19.4658 24.7842C18.6025 25.1494 17.6784 25.332 16.6934 25.332C15.8079 25.332 14.9557 25.1771 14.1367 24.8672C13.3288 24.5573 12.5983 24.1035 11.9453 23.5059C11.2923 24.1035 10.5563 24.5573 9.7373 24.8672C8.91829 25.1771 8.06608 25.332 7.18066 25.332C6.19564 25.332 5.26595 25.1494 4.3916 24.7842C3.52832 24.4079 2.77018 23.8988 2.11719 23.2568C1.47526 22.6038 0.966146 21.8457 0.589844 20.9824C0.224609 20.1081 0.0419922 19.1784 0.0419922 18.1934V1.19336H4.80664V18.1934C4.80664 18.5254 4.86751 18.8408 4.98926 19.1396C5.111 19.4274 5.27702 19.682 5.4873 19.9033C5.70866 20.1136 5.96322 20.2796 6.25098 20.4014C6.53874 20.5231 6.84863 20.584 7.18066 20.584C7.5127 20.584 7.82259 20.5231 8.11035 20.4014C8.39811 20.2796 8.64714 20.1136 8.85742 19.9033C9.07878 19.682 9.25033 19.4274 9.37207 19.1396C9.49382 18.8408 9.55469 18.5254 9.55469 18.1934V1.19336H14.3193V18.1934C14.3193 18.5254 14.3802 18.8408 14.502 19.1396C14.6237 19.4274 14.7897 19.682 15 19.9033C15.2214 20.1136 15.4759 20.2796 15.7637 20.4014C16.0514 20.5231 16.3613 20.584 16.6934 20.584C17.0254 20.584 17.3353 20.5231 17.623 20.4014C17.9108 20.2796 18.1598 20.1136 18.3701 19.9033C18.5915 19.682 18.763 19.4274 18.8848 19.1396C19.0176 18.8408 19.084 18.5254 19.084 18.1934V1.19336H23.832V18.1934Z" fill="white"/>
<path d="M44.5674 15.9521C44.5674 17.2803 44.3294 18.5199 43.8535 19.6709C43.3776 20.8109 42.7301 21.8014 41.9111 22.6426C41.0921 23.4727 40.1292 24.1312 39.0225 24.6182C37.9268 25.0941 36.748 25.332 35.4863 25.332C34.2357 25.332 33.057 25.0941 31.9502 24.6182C30.8545 24.1312 29.8916 23.4727 29.0615 22.6426C28.2425 21.8014 27.5951 20.8109 27.1191 19.6709C26.6432 18.5199 26.4053 17.2803 26.4053 15.9521C26.4053 14.6019 26.6432 13.3512 27.1191 12.2002C27.5951 11.0492 28.2425 10.0586 29.0615 9.22852C29.8916 8.38737 30.8545 7.72884 31.9502 7.25293C33.057 6.77702 34.2357 6.53906 35.4863 6.53906C36.748 6.53906 37.9268 6.76595 39.0225 7.21973C40.1292 7.66244 41.0921 8.29883 41.9111 9.12891C42.7301 9.94792 43.3776 10.9385 43.8535 12.1006C44.3294 13.2516 44.5674 14.5355 44.5674 15.9521ZM40.002 15.9521C40.002 15.2217 39.8802 14.5632 39.6367 13.9766C39.4043 13.3789 39.0833 12.8698 38.6738 12.4492C38.2643 12.0176 37.7829 11.6911 37.2295 11.4697C36.6872 11.2373 36.1061 11.1211 35.4863 11.1211C34.8665 11.1211 34.2799 11.2373 33.7266 11.4697C33.1842 11.6911 32.7083 12.0176 32.2988 12.4492C31.9004 12.8698 31.585 13.3789 31.3525 13.9766C31.1201 14.5632 31.0039 15.2217 31.0039 15.9521C31.0039 16.6383 31.1201 17.2747 31.3525 17.8613C31.585 18.4479 31.9004 18.957 32.2988 19.3887C32.7083 19.8203 33.1842 20.1634 33.7266 20.418C34.2799 20.6615 34.8665 20.7832 35.4863 20.7832C36.1061 20.7832 36.6872 20.667 37.2295 20.4346C37.7829 20.2021 38.2643 19.8757 38.6738 19.4551C39.0833 19.0345 39.4043 18.5254 39.6367 17.9277C39.8802 17.3301 40.002 16.6715 40.002 15.9521Z" fill="white"/>
<path d="M51.6064 25H47.0742V7.21973H48.1699L49.6641 9.32812C50.3945 8.66406 51.2246 8.15495 52.1543 7.80078C53.084 7.43555 54.0469 7.25293 55.043 7.25293H59.0439V11.7686H55.043C54.5671 11.7686 54.1188 11.8571 53.6982 12.0342C53.2777 12.2113 52.9124 12.4548 52.6025 12.7646C52.2926 13.0745 52.0492 13.4398 51.8721 13.8604C51.695 14.2809 51.6064 14.7292 51.6064 15.2051V25Z" fill="white"/>
<path d="M65.7178 25H61.1523V0.147461H65.7178V25Z" fill="white"/>
<path d="M86.3701 25H85.2744L83.5146 22.5596C83.083 22.9469 82.6237 23.3122 82.1367 23.6553C81.6608 23.9873 81.1572 24.2806 80.626 24.5352C80.0947 24.7786 79.5469 24.9723 78.9824 25.1162C78.429 25.2601 77.8646 25.332 77.2891 25.332C76.0384 25.332 74.8597 25.0996 73.7529 24.6348C72.6572 24.1589 71.6943 23.5059 70.8643 22.6758C70.0452 21.8346 69.3978 20.8441 68.9219 19.7041C68.446 18.5531 68.208 17.3024 68.208 15.9521C68.208 14.613 68.446 13.3678 68.9219 12.2168C69.3978 11.0658 70.0452 10.0697 70.8643 9.22852C71.6943 8.38737 72.6572 7.72884 73.7529 7.25293C74.8597 6.77702 76.0384 6.53906 77.2891 6.53906C77.6875 6.53906 78.097 6.57227 78.5176 6.63867C78.9492 6.70508 79.3643 6.81576 79.7627 6.9707C80.1722 7.11458 80.554 7.30827 80.9082 7.55176C81.2624 7.79525 81.5612 8.09408 81.8047 8.44824V0.147461H86.3701V25ZM81.8047 15.9521C81.8047 15.3324 81.6829 14.7347 81.4395 14.1592C81.207 13.5726 80.8861 13.0579 80.4766 12.6152C80.0671 12.1615 79.5856 11.8018 79.0322 11.5361C78.4899 11.2594 77.9089 11.1211 77.2891 11.1211C76.6693 11.1211 76.0827 11.2318 75.5293 11.4531C74.987 11.6745 74.5111 11.9954 74.1016 12.416C73.7031 12.8255 73.3877 13.3291 73.1553 13.9268C72.9229 14.5244 72.8066 15.1995 72.8066 15.9521C72.8066 16.6051 72.9229 17.2249 73.1553 17.8115C73.3877 18.3981 73.7031 18.9128 74.1016 19.3555C74.5111 19.7982 74.987 20.1468 75.5293 20.4014C76.0827 20.6559 76.6693 20.7832 77.2891 20.7832C77.9089 20.7832 78.4899 20.6504 79.0322 20.3848C79.5856 20.1081 80.0671 19.7484 80.4766 19.3057C80.8861 18.8519 81.207 18.3372 81.4395 17.7617C81.6829 17.1751 81.8047 16.5719 81.8047 15.9521Z" fill="white"/>
</svg>
